<?xml version="1.0" encoding="utf-8" standalone="no"?>
<!DOCTYPE svg PUBLIC "-//W3C//DTD SVG 1.1//EN"
  "http://www.w3.org/Graphics/SVG/1.1/DTD/svg11.dtd">
<svg xmlns:xlink="http://www.w3.org/1999/xlink" width="207.07875pt" height="21.635122pt" viewBox="0 0 207.07875 21.635122" xmlns="http://www.w3.org/2000/svg" version="1.1">
 <metadata>
  <rdf:RDF xmlns:dc="http://purl.org/dc/elements/1.1/" xmlns:cc="http://creativecommons.org/ns#" xmlns:rdf="http://www.w3.org/1999/02/22-rdf-syntax-ns#">
   <cc:Work>
    <dc:type rdf:resource="http://purl.org/dc/dcmitype/StillImage"/>
    <dc:date>2024-01-11T14:42:53.824806</dc:date>
    <dc:format>image/svg+xml</dc:format>
    <dc:creator>
     <cc:Agent>
      <dc:title>Matplotlib v3.8.2, https://matplotlib.org/</dc:title>
     </cc:Agent>
    </dc:creator>
   </cc:Work>
  </rdf:RDF>
 </metadata>
 <defs>
  <style type="text/css">*{stroke-linejoin: round; stroke-linecap: butt}</style>
 </defs>
 <g id="figure_1">
  <g id="patch_1">
   <path d="M 0 21.635122 
L 207.07875 21.635122 
L 207.07875 0 
L 0 0 
L 0 21.635122 
z
" style="fill: none"/>
  </g>
  <g id="axes_1">
   <g id="text_1">
    <!-- Chione Systems -->
    <g style="fill: #62d84e" transform="translate(0 17.299436) scale(0.24 -0.24)">
     <defs>
      <path id="BlackOpsOne-Regular-43" d="M 1134 0 
L 303 828 
L 303 3319 
L 1134 4147 
L 1684 4147 
L 1684 0 
L 1134 0 
z
M 2822 2484 
L 2822 3319 
L 1903 3319 
L 1903 4147 
L 3375 4147 
L 4203 3319 
L 4203 2484 
L 2822 2484 
z
M 1903 0 
L 1903 828 
L 2822 828 
L 2822 1434 
L 4203 1434 
L 4203 828 
L 3375 0 
L 1903 0 
z
" transform="scale(0.015625)"/>
      <path id="BlackOpsOne-Regular-68" d="M 325 0 
L 325 4584 
L 1706 4584 
L 1706 0 
L 325 0 
z
M 2534 0 
L 2534 2491 
L 1925 2491 
L 1925 2909 
L 2331 3319 
L 3088 3319 
L 3919 2491 
L 3919 0 
L 2534 0 
z
" transform="scale(0.015625)"/>
      <path id="BlackOpsOne-Regular-69" d="M 328 3731 
L 328 4613 
L 1713 4613 
L 1713 3731 
L 328 3731 
z
M 328 0 
L 328 3319 
L 1713 3319 
L 1713 0 
L 328 0 
z
" transform="scale(0.015625)"/>
      <path id="BlackOpsOne-Regular-6f" d="M 1125 0 
L 297 828 
L 297 2491 
L 1125 3319 
L 2053 3319 
L 2053 2491 
L 1694 2491 
L 1694 775 
L 2053 775 
L 2053 0 
L 1125 0 
z
M 2272 0 
L 2272 775 
L 2616 775 
L 2616 2491 
L 2272 2491 
L 2272 3319 
L 3197 3319 
L 4025 2491 
L 4025 828 
L 3197 0 
L 2272 0 
z
" transform="scale(0.015625)"/>
      <path id="BlackOpsOne-Regular-6e" d="M 2538 0 
L 2538 2491 
L 1944 2491 
L 1944 2853 
L 2406 3319 
L 3175 3319 
L 3922 2572 
L 3922 0 
L 2538 0 
z
M 325 0 
L 325 3319 
L 1719 3319 
L 1719 0 
L 325 0 
z
" transform="scale(0.015625)"/>
      <path id="BlackOpsOne-Regular-65" d="M 1125 0 
L 297 828 
L 297 2491 
L 1125 3319 
L 1678 3319 
L 1678 0 
L 1125 0 
z
M 1897 1331 
L 1897 1909 
L 2625 1909 
L 2625 2491 
L 1897 2491 
L 1897 3319 
L 3069 3319 
L 3897 2491 
L 3897 1331 
L 1897 1331 
z
M 1897 0 
L 1897 775 
L 3753 775 
L 3753 416 
L 3341 0 
L 1897 0 
z
" transform="scale(0.015625)"/>
      <path id="BlackOpsOne-Regular-20" transform="scale(0.015625)"/>
      <path id="BlackOpsOne-Regular-53" d="M 2928 0 
L 2928 1553 
L 1134 1553 
L 303 2384 
L 303 3319 
L 1134 4147 
L 1603 4147 
L 1603 2675 
L 3509 2675 
L 4313 1844 
L 4313 828 
L 3484 0 
L 2928 0 
z
M 2928 2984 
L 2928 3400 
L 1822 3400 
L 1822 4147 
L 3481 4147 
L 4200 3425 
L 4200 2984 
L 2928 2984 
z
M 1000 0 
L 303 828 
L 303 1244 
L 1684 1244 
L 1684 750 
L 2709 750 
L 2709 0 
L 1000 0 
z
" transform="scale(0.015625)"/>
      <path id="BlackOpsOne-Regular-79" d="M 850 -1156 
L 2531 3319 
L 3859 3319 
L 2175 -1156 
L 850 -1156 
z
M 1181 278 
L -44 3319 
L 1334 3319 
L 1800 1969 
L 1181 278 
z
" transform="scale(0.015625)"/>
      <path id="BlackOpsOne-Regular-73" d="M 2513 0 
L 2513 1253 
L 1019 1253 
L 300 1944 
L 300 2575 
L 1047 3319 
L 1600 3319 
L 1600 2147 
L 3175 2147 
L 3894 1422 
L 3894 775 
L 3122 0 
L 2513 0 
z
M 2513 2450 
L 2513 2709 
L 1819 2709 
L 1819 3319 
L 3288 3319 
L 3781 2825 
L 3781 2450 
L 2513 2450 
z
M 872 0 
L 297 684 
L 297 950 
L 1681 950 
L 1681 609 
L 2294 609 
L 2294 0 
L 872 0 
z
" transform="scale(0.015625)"/>
      <path id="BlackOpsOne-Regular-74" d="M 1225 0 
L 394 828 
L 394 2491 
L 119 2491 
L 119 3319 
L 394 3319 
L 394 3678 
L 1775 4147 
L 1775 828 
L 2688 828 
L 2688 0 
L 1225 0 
z
M 1994 2491 
L 1994 3319 
L 2738 3319 
L 2738 2491 
L 1994 2491 
z
" transform="scale(0.015625)"/>
      <path id="BlackOpsOne-Regular-6d" d="M 2491 0 
L 2491 2491 
L 1928 2491 
L 1928 2881 
L 2363 3319 
L 3431 3319 
L 3875 2875 
L 3875 0 
L 2491 0 
z
M 325 0 
L 325 3319 
L 1709 3319 
L 1709 0 
L 325 0 
z
M 4656 0 
L 4656 2491 
L 4094 2491 
L 4094 2875 
L 4519 3319 
L 5363 3319 
L 6038 2638 
L 6038 0 
L 4656 0 
z
" transform="scale(0.015625)"/>
     </defs>
     <use xlink:href="#BlackOpsOne-Regular-43"/>
     <use xlink:href="#BlackOpsOne-Regular-68" x="70.3125"/>
     <use xlink:href="#BlackOpsOne-Regular-69" x="136.474609"/>
     <use xlink:href="#BlackOpsOne-Regular-6f" x="168.359375"/>
     <use xlink:href="#BlackOpsOne-Regular-6e" x="235.888672"/>
     <use xlink:href="#BlackOpsOne-Regular-65" x="302.099609"/>
     <use xlink:href="#BlackOpsOne-Regular-20" x="367.089844"/>
     <use xlink:href="#BlackOpsOne-Regular-53" x="392.96875"/>
     <use xlink:href="#BlackOpsOne-Regular-79" x="465.087891"/>
     <use xlink:href="#BlackOpsOne-Regular-73" x="524.707031"/>
     <use xlink:href="#BlackOpsOne-Regular-74" x="588.916016"/>
     <use xlink:href="#BlackOpsOne-Regular-65" x="634.375"/>
     <use xlink:href="#BlackOpsOne-Regular-6d" x="699.365234"/>
     <use xlink:href="#BlackOpsOne-Regular-73" x="798.632812"/>
    </g>
   </g>
  </g>
 </g>
</svg>
