<?xml version="1.0" encoding="utf-8" standalone="no"?>
<!DOCTYPE svg PUBLIC "-//W3C//DTD SVG 1.1//EN"
  "http://www.w3.org/Graphics/SVG/1.1/DTD/svg11.dtd">
<svg xmlns:xlink="http://www.w3.org/1999/xlink" width="147.96pt" height="24.76875pt" viewBox="0 0 147.96 24.76875" xmlns="http://www.w3.org/2000/svg" version="1.1">
 <metadata>
  <rdf:RDF xmlns:dc="http://purl.org/dc/elements/1.1/" xmlns:cc="http://creativecommons.org/ns#" xmlns:rdf="http://www.w3.org/1999/02/22-rdf-syntax-ns#">
   <cc:Work>
    <dc:type rdf:resource="http://purl.org/dc/dcmitype/StillImage"/>
    <dc:date>2024-01-11T14:42:07.402480</dc:date>
    <dc:format>image/svg+xml</dc:format>
    <dc:creator>
     <cc:Agent>
      <dc:title>Matplotlib v3.8.2, https://matplotlib.org/</dc:title>
     </cc:Agent>
    </dc:creator>
   </cc:Work>
  </rdf:RDF>
 </metadata>
 <defs>
  <style type="text/css">*{stroke-linejoin: round; stroke-linecap: butt}</style>
 </defs>
 <g id="figure_1">
  <g id="patch_1">
   <path d="M 0 24.76875 
L 147.96 24.76875 
L 147.96 0 
L 0 0 
L 0 24.76875 
z
" style="fill: none"/>
  </g>
  <g id="axes_1">
   <g id="text_1">
    <!-- Chione Systems -->
    <g style="fill: #62d84e" transform="translate(0 19.5375) scale(0.24 -0.24)">
     <defs>
      <path id="MarkerFelt-Thin-43" d="M 2688 1350 
Q 2080 -166 1472 -173 
Q 736 -179 397 589 
Q 134 1178 128 2131 
Q 122 3206 410 4090 
Q 742 5120 1312 5184 
Q 1395 5190 1472 5190 
Q 2003 5190 2291 4717 
Q 2502 4358 2650 3578 
Q 2758 3264 2758 3194 
Q 2758 2982 2496 2867 
Q 2438 2842 2362 2842 
Q 2176 2842 1952 2963 
Q 1690 3104 1690 3270 
Q 1690 3296 1779 3520 
Q 1766 3802 1676 4054 
Q 1587 4307 1472 4333 
Q 1293 4378 1158 3622 
Q 1043 2995 1018 2240 
Q 998 1670 1082 1184 
Q 1178 627 1370 589 
Q 1485 570 1645 877 
Q 1798 1158 1901 1542 
Q 1888 1606 1888 1664 
Q 1888 2042 2349 2042 
Q 2451 2042 2554 2022 
Q 2867 1958 2867 1709 
Q 2867 1504 2688 1350 
z
" transform="scale(0.015625)"/>
      <path id="MarkerFelt-Thin-68" d="M 2803 538 
Q 2842 378 2842 333 
Q 2842 198 2685 112 
Q 2528 26 2349 26 
Q 2074 26 1997 230 
Q 1965 314 1965 371 
Q 1965 454 2038 550 
Q 2112 646 2112 730 
Q 2189 1062 2189 1690 
Q 2189 2778 2035 2803 
Q 1920 2822 1664 2438 
Q 1395 2035 1216 1536 
Q 1005 947 1037 499 
Q 1018 461 1018 422 
Q 1018 365 1069 259 
Q 1120 154 1120 90 
Q 1120 26 1075 -32 
Q 902 -282 730 -282 
Q 550 -282 384 0 
Q 288 166 288 1914 
Q 288 2554 320 4826 
Q 320 4864 313 4944 
Q 307 5024 307 5069 
Q 314 5133 346 5184 
Q 416 5318 646 5318 
Q 851 5318 1020 5209 
Q 1190 5101 1152 4954 
Q 1146 4915 1091 4864 
Q 1037 4813 1037 4762 
L 1037 2701 
Q 1402 3520 2112 3571 
Q 2496 3597 2726 2995 
Q 2938 2445 2938 1645 
Q 2938 1030 2803 538 
z
" transform="scale(0.015625)"/>
      <path id="MarkerFelt-Thin-69" d="M 1114 4800 
Q 1133 4781 1133 4736 
Q 1133 4678 1094 4538 
Q 1050 4365 1037 4301 
Q 1024 4237 1050 4019 
Q 1050 3885 970 3843 
Q 890 3802 768 3802 
Q 595 3802 416 3872 
Q 198 3962 198 4109 
Q 198 4154 236 4234 
Q 275 4314 282 4365 
Q 294 4416 282 4621 
Q 269 4781 346 4838 
Q 448 4915 710 4915 
Q 998 4915 1114 4800 
z
M 1197 3238 
Q 1197 3149 1097 2960 
Q 998 2771 998 2650 
L 998 768 
Q 998 640 1068 406 
Q 1139 173 1139 83 
Q 1139 -45 1037 -109 
Q 877 -211 691 -211 
Q 448 -211 346 -45 
Q 211 160 211 1178 
Q 211 1421 220 1936 
Q 230 2451 230 2688 
Q 230 2778 211 2922 
Q 192 3066 192 3130 
Q 192 3341 346 3494 
Q 410 3558 582 3558 
Q 755 3558 928 3504 
Q 1101 3450 1149 3379 
Q 1197 3309 1197 3238 
z
" transform="scale(0.015625)"/>
      <path id="MarkerFelt-Thin-6f" d="M 2112 3302 
Q 2541 2867 2541 1837 
Q 2541 1037 2240 474 
Q 1901 -160 1306 -160 
Q 717 -160 397 410 
Q 115 909 115 1677 
Q 115 2355 333 2893 
Q 563 3469 922 3571 
Q 1107 3622 1306 3622 
Q 1798 3622 2112 3302 
z
M 1382 2995 
Q 1171 3014 1018 2598 
Q 883 2221 883 1805 
Q 883 1203 934 954 
Q 1024 506 1306 461 
Q 1485 435 1638 954 
Q 1786 1453 1786 2022 
Q 1786 2957 1382 2995 
z
" transform="scale(0.015625)"/>
      <path id="MarkerFelt-Thin-6e" d="M 3072 410 
Q 3059 269 2886 169 
Q 2714 70 2502 70 
Q 2189 70 2074 269 
Q 2125 2240 1958 2266 
Q 1798 2291 1178 499 
Q 1178 307 1178 115 
Q 1171 -115 1052 -211 
Q 934 -307 800 -307 
Q 570 -307 307 -58 
Q 230 6 224 915 
Q 230 358 230 2982 
Q 230 3040 217 3139 
Q 205 3238 205 3283 
Q 205 3405 269 3494 
Q 346 3610 512 3610 
Q 685 3610 873 3504 
Q 1062 3398 1101 3302 
Q 1126 3238 1126 3174 
Q 1126 3110 1075 2995 
Q 1024 2880 1024 2803 
L 1024 1920 
Q 1427 2778 1632 3053 
Q 1997 3526 2458 3494 
Q 2733 3475 2848 2982 
Q 2938 2611 2944 1882 
Q 2944 1306 2944 730 
Q 2957 685 3034 570 
Q 3078 506 3072 410 
z
" transform="scale(0.015625)"/>
      <path id="MarkerFelt-Thin-65" d="M 2496 672 
Q 2445 429 2150 154 
Q 2106 83 1798 -32 
Q 1446 -166 1190 -147 
Q 710 -115 435 403 
Q 186 883 186 1581 
Q 186 2336 467 2906 
Q 781 3533 1306 3610 
Q 1408 3622 1504 3622 
Q 2266 3622 2342 2688 
Q 2381 2259 2003 1754 
Q 1594 1197 954 973 
Q 1024 717 1062 640 
Q 1152 480 1306 480 
Q 1453 480 1619 595 
Q 1760 691 1811 781 
Q 1837 794 1862 925 
Q 1888 1056 1997 1114 
Q 2035 1133 2086 1133 
Q 2240 1133 2384 982 
Q 2528 832 2496 672 
z
M 1491 2925 
Q 1235 2925 1075 2560 
Q 864 2074 902 1600 
Q 1203 1696 1459 2048 
Q 1715 2400 1715 2675 
Q 1715 2925 1491 2925 
z
" transform="scale(0.015625)"/>
      <path id="MarkerFelt-Thin-20" transform="scale(0.015625)"/>
      <path id="MarkerFelt-Thin-53" d="M 3021 1062 
Q 3021 563 2704 188 
Q 2387 -186 1920 -186 
Q 979 -186 538 710 
Q 58 1024 58 1242 
Q 58 1350 192 1421 
Q 454 1562 672 1562 
Q 1146 1562 1306 998 
Q 1382 845 1465 691 
Q 1549 538 1690 538 
Q 2067 538 2067 1075 
Q 2067 1555 1894 1722 
Q 1818 1792 1280 2016 
Q 851 2195 589 2630 
Q 352 3027 346 3456 
Q 339 4147 691 4685 
Q 1062 5261 1613 5261 
Q 2253 5261 2547 4749 
Q 2739 4429 2765 3955 
Q 2835 3712 2835 3514 
Q 2835 3386 2803 3302 
Q 2707 3066 2426 3066 
Q 2214 3066 2042 3219 
Q 1850 3386 1805 3686 
Q 1786 3789 1846 3891 
Q 1907 3994 1907 4006 
Q 1907 4019 1894 4032 
Q 1901 4064 1901 4096 
Q 1901 4288 1677 4275 
Q 1459 4262 1338 3987 
Q 1229 3750 1242 3443 
Q 1261 2899 1958 2573 
Q 2509 2317 2720 2067 
Q 3021 1709 3021 1062 
z
" transform="scale(0.015625)"/>
      <path id="MarkerFelt-Thin-79" d="M 2995 3187 
Q 3014 3059 2931 2912 
Q 2784 2669 2778 2650 
Q 2509 2010 1946 589 
Q 1690 -90 1626 -634 
Q 1613 -685 1619 -858 
Q 1626 -998 1574 -1069 
Q 1472 -1203 1267 -1203 
Q 902 -1203 794 -928 
Q 768 -858 768 -806 
Q 768 -742 819 -662 
Q 870 -582 883 -531 
L 1037 269 
L 115 2918 
Q 96 2970 13 3130 
Q -45 3245 -45 3328 
Q -45 3373 -32 3418 
Q 32 3648 403 3648 
Q 634 3648 768 3571 
Q 928 3475 954 3232 
Q 986 2835 998 2790 
L 1421 1459 
L 2074 3110 
Q 2080 3130 2131 3392 
Q 2163 3552 2266 3610 
Q 2330 3648 2413 3648 
Q 2598 3648 2784 3510 
Q 2970 3373 2995 3187 
z
" transform="scale(0.015625)"/>
      <path id="MarkerFelt-Thin-73" d="M 2266 858 
Q 2266 410 1946 93 
Q 1626 -224 1190 -224 
Q 915 -224 621 38 
Q 390 250 205 557 
Q 45 826 64 896 
Q 134 1056 506 1056 
Q 659 1056 749 1011 
Q 902 928 922 800 
Q 941 653 986 614 
Q 1120 410 1229 410 
Q 1312 410 1385 522 
Q 1459 634 1459 787 
Q 1459 883 1427 979 
Q 1395 1075 1082 1274 
Q 704 1510 544 1690 
Q 269 1997 269 2406 
Q 269 2886 550 3248 
Q 832 3610 1267 3610 
Q 1715 3610 1952 3270 
Q 2144 2995 2112 2714 
Q 2182 2637 2182 2458 
Q 2182 2266 2041 2131 
Q 1901 1997 1754 1997 
Q 1536 1997 1376 2285 
Q 1331 2362 1331 2490 
Q 1331 2547 1340 2652 
Q 1350 2758 1350 2803 
Q 1350 2970 1229 2970 
Q 1043 2970 1043 2605 
Q 1043 2234 1286 2010 
Q 1382 1920 1702 1754 
Q 1978 1613 2093 1466 
Q 2266 1242 2266 858 
z
" transform="scale(0.015625)"/>
      <path id="MarkerFelt-Thin-74" d="M 2202 2906 
Q 2150 2906 2041 2947 
Q 1933 2989 1875 2989 
Q 1830 2989 1786 2970 
L 1549 2848 
L 1549 659 
Q 1549 538 1680 346 
Q 1811 154 1786 38 
Q 1754 -102 1597 -185 
Q 1440 -269 1261 -269 
Q 922 -269 794 32 
Q 755 122 749 602 
Q 742 922 755 1600 
Q 768 2368 768 2573 
Q 730 2560 640 2486 
Q 550 2413 461 2413 
Q 390 2413 282 2451 
Q -166 2605 -166 2765 
Q -166 2803 -147 2848 
Q -102 2950 19 2963 
Q 205 2989 243 3008 
Q 390 3066 781 3283 
L 781 3840 
Q 781 3904 745 4009 
Q 710 4115 710 4166 
Q 710 4224 742 4275 
Q 909 4531 1190 4531 
Q 1517 4531 1651 4275 
Q 1702 4173 1702 4109 
Q 1702 4032 1625 3949 
Q 1549 3866 1549 3795 
L 1549 3482 
Q 1664 3533 1805 3654 
Q 1914 3744 1990 3744 
Q 2022 3744 2061 3731 
Q 2464 3622 2464 3245 
Q 2464 3123 2390 3014 
Q 2317 2906 2202 2906 
z
" transform="scale(0.015625)"/>
      <path id="MarkerFelt-Thin-6d" d="M 4518 0 
Q 4435 -237 4141 -237 
Q 3770 -237 3590 19 
Q 3494 160 3494 986 
Q 3494 1107 3494 1325 
Q 3501 1549 3501 1638 
Q 3501 2086 3456 2099 
Q 3360 2138 2803 307 
Q 2803 301 2778 0 
Q 2765 -186 2650 -250 
Q 2566 -294 2464 -294 
Q 2278 -294 2105 -172 
Q 1933 -51 1888 115 
Q 1824 352 1830 1050 
Q 1843 2067 1843 2029 
Q 1837 2298 1805 2304 
Q 1658 2061 1549 1837 
Q 1286 1299 1248 941 
Q 1216 864 1242 640 
Q 1267 448 1184 377 
Q 1101 307 960 307 
Q 806 307 649 393 
Q 493 480 422 589 
Q 320 749 307 1523 
Q 307 2278 307 3034 
Q 301 3098 256 3213 
Q 211 3328 211 3386 
Q 211 3443 243 3494 
Q 326 3622 666 3622 
Q 1082 3622 1165 3418 
Q 1184 3373 1184 3328 
Q 1184 3270 1123 3161 
Q 1062 3053 1062 2982 
L 1062 2253 
Q 1254 2656 1568 3277 
Q 1606 3360 1641 3443 
Q 1677 3526 1747 3590 
Q 1818 3654 1984 3654 
Q 2240 3654 2499 3539 
Q 2758 3424 2765 3264 
Q 2771 3098 2716 3011 
Q 2662 2925 2662 2867 
L 2650 1485 
Q 2752 1715 3021 2573 
Q 3232 3226 3341 3302 
Q 3482 3405 3757 3405 
Q 4269 3405 4288 3110 
Q 4282 2330 4288 499 
Q 4288 429 4416 329 
Q 4544 230 4544 122 
Q 4544 70 4518 0 
z
" transform="scale(0.015625)"/>
     </defs>
     <use xlink:href="#MarkerFelt-Thin-43"/>
     <use xlink:href="#MarkerFelt-Thin-68" x="48.374985"/>
     <use xlink:href="#MarkerFelt-Thin-69" x="98.499969"/>
     <use xlink:href="#MarkerFelt-Thin-6f" x="121.749954"/>
     <use xlink:href="#MarkerFelt-Thin-6e" x="166.999939"/>
     <use xlink:href="#MarkerFelt-Thin-65" x="218.749924"/>
     <use xlink:href="#MarkerFelt-Thin-20" x="256.749908"/>
     <use xlink:href="#MarkerFelt-Thin-53" x="281.749893"/>
     <use xlink:href="#MarkerFelt-Thin-79" x="334.499878"/>
     <use xlink:href="#MarkerFelt-Thin-73" x="381.499863"/>
     <use xlink:href="#MarkerFelt-Thin-74" x="424.874847"/>
     <use xlink:href="#MarkerFelt-Thin-65" x="462.999832"/>
     <use xlink:href="#MarkerFelt-Thin-6d" x="504.999817"/>
     <use xlink:href="#MarkerFelt-Thin-73" x="579.499802"/>
    </g>
   </g>
  </g>
 </g>
</svg>
