<?xml version="1.0" encoding="utf-8" standalone="no"?>
<!DOCTYPE svg PUBLIC "-//W3C//DTD SVG 1.1//EN"
  "http://www.w3.org/Graphics/SVG/1.1/DTD/svg11.dtd">
<svg xmlns:xlink="http://www.w3.org/1999/xlink" width="442.88625pt" height="21.635122pt" viewBox="0 0 442.88625 21.635122" xmlns="http://www.w3.org/2000/svg" version="1.1">
 <metadata>
  <rdf:RDF xmlns:dc="http://purl.org/dc/elements/1.1/" xmlns:cc="http://creativecommons.org/ns#" xmlns:rdf="http://www.w3.org/1999/02/22-rdf-syntax-ns#">
   <cc:Work>
    <dc:type rdf:resource="http://purl.org/dc/dcmitype/StillImage"/>
    <dc:date>2024-05-23T18:10:17.249707</dc:date>
    <dc:format>image/svg+xml</dc:format>
    <dc:creator>
     <cc:Agent>
      <dc:title>Matplotlib v3.8.2, https://matplotlib.org/</dc:title>
     </cc:Agent>
    </dc:creator>
   </cc:Work>
  </rdf:RDF>
 </metadata>
 <defs>
  <style type="text/css">*{stroke-linejoin: round; stroke-linecap: butt}</style>
 </defs>
 <g id="figure_1">
  <g id="patch_1">
   <path d="M 0 21.635122 
L 442.88625 21.635122 
L 442.88625 0 
L 0 0 
L 0 21.635122 
z
" style="fill: none"/>
  </g>
  <g id="axes_1">
   <g id="text_1">
    <!-- Vulnerability Response (VR) DEMO -->
    <g style="fill: #62d84e" transform="translate(-0 17.299436) scale(0.24 -0.24)">
     <defs>
      <path id="BlackOpsOne-Regular-56" d="M 1419 0 
L -81 4147 
L 1328 4147 
L 2763 0 
L 1419 0 
z
M 2931 125 
L 2309 1950 
L 2978 4147 
L 4366 4147 
L 2931 125 
z
" transform="scale(0.015625)"/>
      <path id="BlackOpsOne-Regular-75" d="M 1128 0 
L 297 828 
L 297 3319 
L 1678 3319 
L 1678 828 
L 2294 828 
L 2294 416 
L 1894 0 
L 1128 0 
z
M 2513 0 
L 2513 3319 
L 3894 3319 
L 3894 0 
L 2513 0 
z
" transform="scale(0.015625)"/>
      <path id="BlackOpsOne-Regular-6c" d="M 1100 0 
L 325 775 
L 325 4584 
L 1706 4584 
L 1706 828 
L 2325 828 
L 2325 0 
L 1100 0 
z
" transform="scale(0.015625)"/>
      <path id="BlackOpsOne-Regular-6e" d="M 2538 0 
L 2538 2491 
L 1944 2491 
L 1944 2853 
L 2406 3319 
L 3175 3319 
L 3922 2572 
L 3922 0 
L 2538 0 
z
M 325 0 
L 325 3319 
L 1719 3319 
L 1719 0 
L 325 0 
z
" transform="scale(0.015625)"/>
      <path id="BlackOpsOne-Regular-65" d="M 1125 0 
L 297 828 
L 297 2491 
L 1125 3319 
L 1678 3319 
L 1678 0 
L 1125 0 
z
M 1897 1331 
L 1897 1909 
L 2625 1909 
L 2625 2491 
L 1897 2491 
L 1897 3319 
L 3069 3319 
L 3897 2491 
L 3897 1331 
L 1897 1331 
z
M 1897 0 
L 1897 775 
L 3753 775 
L 3753 416 
L 3341 0 
L 1897 0 
z
" transform="scale(0.015625)"/>
      <path id="BlackOpsOne-Regular-72" d="M 325 0 
L 325 3319 
L 1706 3319 
L 1706 0 
L 325 0 
z
M 2516 1684 
L 2516 2491 
L 1928 2491 
L 1928 2853 
L 2391 3319 
L 3228 3319 
L 3900 2544 
L 3900 1684 
L 2516 1684 
z
" transform="scale(0.015625)"/>
      <path id="BlackOpsOne-Regular-61" d="M 2513 0 
L 2513 2491 
L 547 2491 
L 547 2903 
L 963 3319 
L 3034 3319 
L 3863 2491 
L 3863 0 
L 2513 0 
z
M 825 0 
L 269 547 
L 269 1378 
L 825 1931 
L 2294 1931 
L 2294 1356 
L 1581 1356 
L 1581 775 
L 2294 775 
L 2294 409 
L 1881 0 
L 825 0 
z
" transform="scale(0.015625)"/>
      <path id="BlackOpsOne-Regular-62" d="M 325 0 
L 325 4584 
L 1706 4584 
L 1706 0 
L 325 0 
z
M 1925 0 
L 1925 775 
L 2544 775 
L 2544 2491 
L 1925 2491 
L 1925 2909 
L 2331 3319 
L 3088 3319 
L 3919 2491 
L 3919 828 
L 3088 0 
L 1925 0 
z
" transform="scale(0.015625)"/>
      <path id="BlackOpsOne-Regular-69" d="M 328 3731 
L 328 4613 
L 1713 4613 
L 1713 3731 
L 328 3731 
z
M 328 0 
L 328 3319 
L 1713 3319 
L 1713 0 
L 328 0 
z
" transform="scale(0.015625)"/>
      <path id="BlackOpsOne-Regular-74" d="M 1225 0 
L 394 828 
L 394 2491 
L 119 2491 
L 119 3319 
L 394 3319 
L 394 3678 
L 1775 4147 
L 1775 828 
L 2688 828 
L 2688 0 
L 1225 0 
z
M 1994 2491 
L 1994 3319 
L 2738 3319 
L 2738 2491 
L 1994 2491 
z
" transform="scale(0.015625)"/>
      <path id="BlackOpsOne-Regular-79" d="M 850 -1156 
L 2531 3319 
L 3859 3319 
L 2175 -1156 
L 850 -1156 
z
M 1181 278 
L -44 3319 
L 1334 3319 
L 1800 1969 
L 1181 278 
z
" transform="scale(0.015625)"/>
      <path id="BlackOpsOne-Regular-20" transform="scale(0.015625)"/>
      <path id="BlackOpsOne-Regular-52" d="M 1966 1244 
L 1966 2047 
L 3003 2047 
L 3003 3319 
L 1966 3319 
L 1966 4147 
L 3544 4147 
L 4375 3319 
L 4375 2075 
L 3731 1431 
L 4516 0 
L 3041 0 
L 2453 1244 
L 1966 1244 
z
M 366 0 
L 366 4147 
L 1747 4147 
L 1747 0 
L 366 0 
z
" transform="scale(0.015625)"/>
      <path id="BlackOpsOne-Regular-73" d="M 2513 0 
L 2513 1253 
L 1019 1253 
L 300 1944 
L 300 2575 
L 1047 3319 
L 1600 3319 
L 1600 2147 
L 3175 2147 
L 3894 1422 
L 3894 775 
L 3122 0 
L 2513 0 
z
M 2513 2450 
L 2513 2709 
L 1819 2709 
L 1819 3319 
L 3288 3319 
L 3781 2825 
L 3781 2450 
L 2513 2450 
z
M 872 0 
L 297 684 
L 297 950 
L 1681 950 
L 1681 609 
L 2294 609 
L 2294 0 
L 872 0 
z
" transform="scale(0.015625)"/>
      <path id="BlackOpsOne-Regular-70" d="M 1925 0 
L 1925 775 
L 2534 775 
L 2534 2491 
L 1925 2491 
L 1925 2909 
L 2331 3319 
L 3088 3319 
L 3919 2491 
L 3919 828 
L 3088 0 
L 1925 0 
z
M 325 -1106 
L 325 3319 
L 1706 3319 
L 1706 -1106 
L 325 -1106 
z
" transform="scale(0.015625)"/>
      <path id="BlackOpsOne-Regular-6f" d="M 1125 0 
L 297 828 
L 297 2491 
L 1125 3319 
L 2053 3319 
L 2053 2491 
L 1694 2491 
L 1694 775 
L 2053 775 
L 2053 0 
L 1125 0 
z
M 2272 0 
L 2272 775 
L 2616 775 
L 2616 2491 
L 2272 2491 
L 2272 3319 
L 3197 3319 
L 4025 2491 
L 4025 828 
L 3197 0 
L 2272 0 
z
" transform="scale(0.015625)"/>
      <path id="BlackOpsOne-Regular-28" d="M 1547 -444 
L 744 388 
L 744 3763 
L 1547 4591 
L 2613 4591 
L 2613 3763 
L 2100 3763 
L 2100 388 
L 2613 388 
L 2613 -444 
L 1547 -444 
z
" transform="scale(0.015625)"/>
      <path id="BlackOpsOne-Regular-29" d="M 447 -444 
L 447 388 
L 959 388 
L 959 3763 
L 447 3763 
L 447 4591 
L 1513 4591 
L 2316 3763 
L 2316 388 
L 1513 -444 
L 447 -444 
z
" transform="scale(0.015625)"/>
      <path id="BlackOpsOne-Regular-44" d="M 1966 0 
L 1966 828 
L 2991 828 
L 2991 3319 
L 1966 3319 
L 1966 4147 
L 3544 4147 
L 4375 3319 
L 4375 828 
L 3544 0 
L 1966 0 
z
M 366 0 
L 366 4147 
L 1747 4147 
L 1747 0 
L 366 0 
z
" transform="scale(0.015625)"/>
      <path id="BlackOpsOne-Regular-45" d="M 366 0 
L 366 4147 
L 1747 4147 
L 1747 2503 
L 3069 2503 
L 3069 1703 
L 1747 1703 
L 1747 0 
L 366 0 
z
M 2825 2947 
L 2825 3344 
L 1966 3344 
L 1966 4147 
L 4125 4147 
L 4125 2947 
L 2825 2947 
z
M 1966 0 
L 1966 828 
L 2744 828 
L 2744 1244 
L 4125 1244 
L 4125 0 
L 1966 0 
z
" transform="scale(0.015625)"/>
      <path id="BlackOpsOne-Regular-4d" d="M 2828 0 
L 369 4147 
L 1838 4147 
L 2950 2303 
L 3825 3803 
L 3825 1716 
L 2828 0 
z
M 4028 0 
L 4028 4147 
L 5409 4147 
L 5409 0 
L 4028 0 
z
M 366 0 
L 366 3763 
L 1656 1597 
L 1656 0 
L 366 0 
z
" transform="scale(0.015625)"/>
      <path id="BlackOpsOne-Regular-4f" d="M 2391 0 
L 2391 844 
L 2919 844 
L 2919 3306 
L 2391 3306 
L 2391 4147 
L 3463 4147 
L 4300 3319 
L 4300 828 
L 3463 0 
L 2391 0 
z
M 1109 0 
L 269 828 
L 269 3319 
L 1109 4147 
L 2172 4147 
L 2172 3306 
L 1653 3306 
L 1653 844 
L 2172 844 
L 2172 0 
L 1109 0 
z
" transform="scale(0.015625)"/>
     </defs>
     <use xlink:href="#BlackOpsOne-Regular-56"/>
     <use xlink:href="#BlackOpsOne-Regular-75" x="66.943359"/>
     <use xlink:href="#BlackOpsOne-Regular-6c" x="132.861328"/>
     <use xlink:href="#BlackOpsOne-Regular-6e" x="169.628906"/>
     <use xlink:href="#BlackOpsOne-Regular-65" x="235.839844"/>
     <use xlink:href="#BlackOpsOne-Regular-72" x="300.830078"/>
     <use xlink:href="#BlackOpsOne-Regular-61" x="362.353516"/>
     <use xlink:href="#BlackOpsOne-Regular-62" x="427.34375"/>
     <use xlink:href="#BlackOpsOne-Regular-69" x="493.212891"/>
     <use xlink:href="#BlackOpsOne-Regular-6c" x="525.097656"/>
     <use xlink:href="#BlackOpsOne-Regular-69" x="561.865234"/>
     <use xlink:href="#BlackOpsOne-Regular-74" x="593.75"/>
     <use xlink:href="#BlackOpsOne-Regular-79" x="639.208984"/>
     <use xlink:href="#BlackOpsOne-Regular-20" x="698.828125"/>
     <use xlink:href="#BlackOpsOne-Regular-52" x="724.707031"/>
     <use xlink:href="#BlackOpsOne-Regular-65" x="797.265625"/>
     <use xlink:href="#BlackOpsOne-Regular-73" x="862.255859"/>
     <use xlink:href="#BlackOpsOne-Regular-70" x="926.464844"/>
     <use xlink:href="#BlackOpsOne-Regular-6f" x="992.333984"/>
     <use xlink:href="#BlackOpsOne-Regular-6e" x="1059.863281"/>
     <use xlink:href="#BlackOpsOne-Regular-73" x="1126.074219"/>
     <use xlink:href="#BlackOpsOne-Regular-65" x="1190.283203"/>
     <use xlink:href="#BlackOpsOne-Regular-20" x="1255.273438"/>
     <use xlink:href="#BlackOpsOne-Regular-28" x="1281.152344"/>
     <use xlink:href="#BlackOpsOne-Regular-56" x="1328.90625"/>
     <use xlink:href="#BlackOpsOne-Regular-52" x="1395.849609"/>
     <use xlink:href="#BlackOpsOne-Regular-29" x="1468.408203"/>
     <use xlink:href="#BlackOpsOne-Regular-20" x="1516.162109"/>
     <use xlink:href="#BlackOpsOne-Regular-44" x="1542.041016"/>
     <use xlink:href="#BlackOpsOne-Regular-45" x="1614.599609"/>
     <use xlink:href="#BlackOpsOne-Regular-4d" x="1683.691406"/>
     <use xlink:href="#BlackOpsOne-Regular-4f" x="1773.925781"/>
    </g>
   </g>
  </g>
 </g>
</svg>
