<?xml version="1.0" encoding="utf-8" standalone="no"?>
<!DOCTYPE svg PUBLIC "-//W3C//DTD SVG 1.1//EN"
  "http://www.w3.org/Graphics/SVG/1.1/DTD/svg11.dtd">
<svg xmlns:xlink="http://www.w3.org/1999/xlink" width="153.42pt" height="24.76875pt" viewBox="0 0 153.42 24.76875" xmlns="http://www.w3.org/2000/svg" version="1.1">
 <metadata>
  <rdf:RDF xmlns:dc="http://purl.org/dc/elements/1.1/" xmlns:cc="http://creativecommons.org/ns#" xmlns:rdf="http://www.w3.org/1999/02/22-rdf-syntax-ns#">
   <cc:Work>
    <dc:type rdf:resource="http://purl.org/dc/dcmitype/StillImage"/>
    <dc:date>2023-11-29T20:46:30.231321</dc:date>
    <dc:format>image/svg+xml</dc:format>
    <dc:creator>
     <cc:Agent>
      <dc:title>Matplotlib v3.7.3, https://matplotlib.org/</dc:title>
     </cc:Agent>
    </dc:creator>
   </cc:Work>
  </rdf:RDF>
 </metadata>
 <defs>
  <style type="text/css">*{stroke-linejoin: round; stroke-linecap: butt}</style>
 </defs>
 <g id="figure_1">
  <g id="patch_1">
   <path d="M 0 24.76875 
L 153.42 24.76875 
L 153.42 0 
L 0 0 
L 0 24.76875 
z
" style="fill: none"/>
  </g>
  <g id="axes_1">
   <g id="text_1">
    <!-- Matt's Sandbox -->
    <g style="fill: #95bade" transform="translate(0 19.5375) scale(0.24 -0.24)">
     <defs>
      <path id="MarkerFelt-Thin-4d" d="M 5811 13 
Q 5664 -198 5382 -198 
Q 5126 -198 4851 -32 
Q 4602 115 4570 256 
Q 4557 307 4557 352 
Q 4557 454 4643 582 
Q 4730 710 4723 806 
L 4531 2957 
L 3430 474 
Q 3411 422 3411 352 
Q 3411 301 3427 192 
Q 3443 83 3443 26 
Q 3443 -122 3328 -198 
Q 3162 -314 2938 -314 
Q 2714 -314 2531 -195 
Q 2349 -77 2304 115 
Q 2291 173 2291 218 
Q 2291 262 2304 326 
Q 2317 390 2317 422 
Q 2317 461 2304 499 
L 1382 2957 
L 1472 640 
Q 1478 550 1516 387 
Q 1555 224 1555 147 
Q 1555 -90 1203 -224 
Q 1158 -237 1094 -237 
Q 896 -237 685 -102 
Q 442 45 371 282 
Q 358 320 358 352 
Q 358 416 435 496 
Q 512 576 512 640 
L 435 4288 
Q 435 4378 371 4515 
Q 307 4653 307 4723 
Q 307 4832 422 4957 
Q 538 5082 826 5082 
Q 1248 5082 1498 4877 
Q 1638 4762 1638 4634 
Q 1638 4614 1632 4576 
Q 1632 4538 1632 4518 
Q 1632 4461 1651 4416 
L 2918 1344 
L 4339 4608 
Q 4365 4666 4365 4742 
Q 4365 4768 4358 4819 
Q 4358 4870 4358 4896 
Q 4358 5043 4493 5146 
Q 4602 5229 4781 5229 
Q 5056 5229 5315 5062 
Q 5574 4896 5568 4685 
Q 5562 4582 5472 4515 
Q 5382 4448 5389 4390 
L 5658 614 
Q 5664 550 5760 393 
Q 5856 237 5856 141 
Q 5856 77 5811 13 
z
" transform="scale(0.015625)"/>
      <path id="MarkerFelt-Thin-61" d="M 2854 269 
Q 2758 -45 2381 -45 
Q 2253 -45 2176 0 
Q 2074 70 2035 282 
Q 1958 646 1882 851 
Q 1862 499 1497 137 
Q 1133 -224 762 -224 
Q 294 -224 115 397 
Q 51 627 51 832 
Q 51 1427 659 1850 
Q 1158 2144 1664 2432 
Q 1690 2541 1690 2643 
Q 1690 2842 1581 2877 
Q 1472 2912 1395 2912 
Q 1261 2912 1174 2825 
Q 1088 2739 1011 2662 
Q 934 2611 813 2426 
Q 717 2278 602 2266 
Q 435 2246 300 2380 
Q 166 2515 166 2694 
Q 166 2797 218 2880 
Q 365 3123 659 3302 
Q 1107 3571 1779 3571 
Q 2208 3571 2368 3162 
Q 2470 2886 2522 2131 
Q 2579 1216 2662 794 
Q 2675 710 2771 582 
Q 2867 454 2867 358 
Q 2867 314 2854 269 
z
M 1741 1843 
Q 1549 1741 1360 1632 
Q 1171 1523 1011 1344 
Q 781 1082 781 896 
Q 781 742 896 576 
Q 960 486 1037 486 
Q 1203 486 1398 857 
Q 1594 1229 1741 1843 
z
" transform="scale(0.015625)"/>
      <path id="MarkerFelt-Thin-74" d="M 2202 2906 
Q 2150 2906 2041 2947 
Q 1933 2989 1875 2989 
Q 1830 2989 1786 2970 
L 1549 2848 
L 1549 659 
Q 1549 538 1680 346 
Q 1811 154 1786 38 
Q 1754 -102 1597 -185 
Q 1440 -269 1261 -269 
Q 922 -269 794 32 
Q 755 122 749 602 
Q 742 922 755 1600 
Q 768 2368 768 2573 
Q 730 2560 640 2486 
Q 550 2413 461 2413 
Q 390 2413 282 2451 
Q -166 2605 -166 2765 
Q -166 2803 -147 2848 
Q -102 2950 19 2963 
Q 205 2989 243 3008 
Q 390 3066 781 3283 
L 781 3840 
Q 781 3904 745 4009 
Q 710 4115 710 4166 
Q 710 4224 742 4275 
Q 909 4531 1190 4531 
Q 1517 4531 1651 4275 
Q 1702 4173 1702 4109 
Q 1702 4032 1625 3949 
Q 1549 3866 1549 3795 
L 1549 3482 
Q 1664 3533 1805 3654 
Q 1914 3744 1990 3744 
Q 2022 3744 2061 3731 
Q 2464 3622 2464 3245 
Q 2464 3123 2390 3014 
Q 2317 2906 2202 2906 
z
" transform="scale(0.015625)"/>
      <path id="MarkerFelt-Thin-27" d="M 845 4608 
L 806 4032 
Q 800 3974 819 3884 
Q 838 3795 838 3763 
Q 838 3546 589 3546 
Q 454 3546 320 3632 
Q 186 3718 154 3840 
Q 141 3904 166 4000 
Q 192 4096 192 4147 
L 192 4646 
L 115 4954 
Q 211 5126 461 5126 
Q 762 5126 845 4915 
Q 864 4870 845 4608 
z
" transform="scale(0.015625)"/>
      <path id="MarkerFelt-Thin-73" d="M 2266 858 
Q 2266 410 1946 93 
Q 1626 -224 1190 -224 
Q 915 -224 621 38 
Q 390 250 205 557 
Q 45 826 64 896 
Q 134 1056 506 1056 
Q 659 1056 749 1011 
Q 902 928 922 800 
Q 941 653 986 614 
Q 1120 410 1229 410 
Q 1312 410 1385 522 
Q 1459 634 1459 787 
Q 1459 883 1427 979 
Q 1395 1075 1082 1274 
Q 704 1510 544 1690 
Q 269 1997 269 2406 
Q 269 2886 550 3248 
Q 832 3610 1267 3610 
Q 1715 3610 1952 3270 
Q 2144 2995 2112 2714 
Q 2182 2637 2182 2458 
Q 2182 2266 2041 2131 
Q 1901 1997 1754 1997 
Q 1536 1997 1376 2285 
Q 1331 2362 1331 2490 
Q 1331 2547 1340 2652 
Q 1350 2758 1350 2803 
Q 1350 2970 1229 2970 
Q 1043 2970 1043 2605 
Q 1043 2234 1286 2010 
Q 1382 1920 1702 1754 
Q 1978 1613 2093 1466 
Q 2266 1242 2266 858 
z
" transform="scale(0.015625)"/>
      <path id="MarkerFelt-Thin-20" transform="scale(0.015625)"/>
      <path id="MarkerFelt-Thin-53" d="M 3021 1062 
Q 3021 563 2704 188 
Q 2387 -186 1920 -186 
Q 979 -186 538 710 
Q 58 1024 58 1242 
Q 58 1350 192 1421 
Q 454 1562 672 1562 
Q 1146 1562 1306 998 
Q 1382 845 1465 691 
Q 1549 538 1690 538 
Q 2067 538 2067 1075 
Q 2067 1555 1894 1722 
Q 1818 1792 1280 2016 
Q 851 2195 589 2630 
Q 352 3027 346 3456 
Q 339 4147 691 4685 
Q 1062 5261 1613 5261 
Q 2253 5261 2547 4749 
Q 2739 4429 2765 3955 
Q 2835 3712 2835 3514 
Q 2835 3386 2803 3302 
Q 2707 3066 2426 3066 
Q 2214 3066 2042 3219 
Q 1850 3386 1805 3686 
Q 1786 3789 1846 3891 
Q 1907 3994 1907 4006 
Q 1907 4019 1894 4032 
Q 1901 4064 1901 4096 
Q 1901 4288 1677 4275 
Q 1459 4262 1338 3987 
Q 1229 3750 1242 3443 
Q 1261 2899 1958 2573 
Q 2509 2317 2720 2067 
Q 3021 1709 3021 1062 
z
" transform="scale(0.015625)"/>
      <path id="MarkerFelt-Thin-6e" d="M 3072 410 
Q 3059 269 2886 169 
Q 2714 70 2502 70 
Q 2189 70 2074 269 
Q 2125 2240 1958 2266 
Q 1798 2291 1178 499 
Q 1178 307 1178 115 
Q 1171 -115 1052 -211 
Q 934 -307 800 -307 
Q 570 -307 307 -58 
Q 230 6 224 915 
Q 230 358 230 2982 
Q 230 3040 217 3139 
Q 205 3238 205 3283 
Q 205 3405 269 3494 
Q 346 3610 512 3610 
Q 685 3610 873 3504 
Q 1062 3398 1101 3302 
Q 1126 3238 1126 3174 
Q 1126 3110 1075 2995 
Q 1024 2880 1024 2803 
L 1024 1920 
Q 1427 2778 1632 3053 
Q 1997 3526 2458 3494 
Q 2733 3475 2848 2982 
Q 2938 2611 2944 1882 
Q 2944 1306 2944 730 
Q 2957 685 3034 570 
Q 3078 506 3072 410 
z
" transform="scale(0.015625)"/>
      <path id="MarkerFelt-Thin-64" d="M 2534 38 
Q 2458 -134 2061 -134 
Q 1811 -134 1728 -32 
Q 1696 0 1696 58 
Q 1696 102 1728 198 
Q 1760 294 1766 346 
Q 1472 -70 1075 -70 
Q 544 -70 301 531 
Q 115 992 115 1728 
Q 115 2406 403 2963 
Q 723 3571 1190 3571 
Q 1453 3571 1728 3149 
L 1728 3974 
Q 1728 4077 1645 4237 
Q 1562 4397 1562 4480 
Q 1562 4544 1594 4608 
Q 1728 4896 2118 4896 
Q 2438 4896 2515 4666 
Q 2541 4589 2541 4518 
Q 2541 4448 2499 4329 
Q 2458 4211 2458 4128 
L 2458 480 
Q 2458 410 2509 310 
Q 2560 211 2560 147 
Q 2560 96 2534 38 
z
M 1651 1728 
Q 1651 2022 1530 2419 
Q 1395 2842 1267 2842 
Q 1120 2842 1030 2451 
Q 960 2131 960 1728 
Q 960 1658 954 1498 
Q 954 1344 954 1261 
Q 954 538 1267 538 
Q 1414 538 1536 954 
Q 1651 1338 1651 1728 
z
" transform="scale(0.015625)"/>
      <path id="MarkerFelt-Thin-62" d="M 2637 1728 
Q 2637 992 2451 531 
Q 2208 -70 1677 -70 
Q 1280 -70 986 346 
Q 992 294 1024 198 
Q 1056 102 1056 58 
Q 1056 0 1024 -32 
Q 941 -134 691 -134 
Q 294 -134 218 38 
Q 192 96 192 147 
Q 192 211 243 310 
Q 294 410 294 480 
L 294 4128 
Q 294 4211 252 4329 
Q 211 4448 211 4518 
Q 211 4589 237 4666 
Q 314 4896 634 4896 
Q 1024 4896 1158 4608 
Q 1190 4544 1190 4480 
Q 1190 4397 1107 4237 
Q 1024 4077 1024 3974 
L 1024 3149 
Q 1299 3571 1562 3571 
Q 2029 3571 2349 2963 
Q 2637 2406 2637 1728 
z
M 1792 1728 
Q 1792 2131 1722 2451 
Q 1632 2842 1485 2842 
Q 1357 2842 1229 2419 
Q 1101 2022 1101 1728 
Q 1101 1338 1216 954 
Q 1338 538 1485 538 
Q 1798 538 1798 1261 
Q 1798 1344 1798 1498 
Q 1792 1658 1792 1728 
z
" transform="scale(0.015625)"/>
      <path id="MarkerFelt-Thin-6f" d="M 2112 3302 
Q 2541 2867 2541 1837 
Q 2541 1037 2240 474 
Q 1901 -160 1306 -160 
Q 717 -160 397 410 
Q 115 909 115 1677 
Q 115 2355 333 2893 
Q 563 3469 922 3571 
Q 1107 3622 1306 3622 
Q 1798 3622 2112 3302 
z
M 1382 2995 
Q 1171 3014 1018 2598 
Q 883 2221 883 1805 
Q 883 1203 934 954 
Q 1024 506 1306 461 
Q 1485 435 1638 954 
Q 1786 1453 1786 2022 
Q 1786 2957 1382 2995 
z
" transform="scale(0.015625)"/>
      <path id="MarkerFelt-Thin-78" d="M 2650 3392 
Q 2662 3283 2522 3187 
Q 2342 3059 2304 2995 
L 1574 1728 
L 2189 538 
Q 2202 518 2323 339 
Q 2400 230 2400 141 
Q 2400 90 2381 38 
Q 2272 -237 1978 -237 
Q 1856 -237 1741 -186 
Q 1581 -115 1565 -3 
Q 1549 109 1536 218 
L 1190 1075 
L 806 307 
Q 768 179 717 54 
Q 666 -70 518 -70 
Q 333 -70 160 58 
Q -26 205 0 384 
Q 13 454 86 534 
Q 160 614 179 653 
L 742 1677 
L 346 2918 
Q 326 2982 220 3075 
Q 115 3168 102 3251 
Q 83 3398 282 3514 
Q 461 3610 666 3610 
Q 781 3610 845 3571 
Q 986 3482 1018 3344 
Q 1050 3206 1075 3072 
L 1267 2470 
L 1690 3226 
Q 1747 3347 1814 3475 
Q 1882 3603 1997 3648 
Q 2067 3680 2157 3680 
Q 2323 3680 2480 3587 
Q 2637 3494 2650 3392 
z
" transform="scale(0.015625)"/>
     </defs>
     <use xlink:href="#MarkerFelt-Thin-4d"/>
     <use xlink:href="#MarkerFelt-Thin-61" x="97.624985"/>
     <use xlink:href="#MarkerFelt-Thin-74" x="146.499969"/>
     <use xlink:href="#MarkerFelt-Thin-74" x="191.124954"/>
     <use xlink:href="#MarkerFelt-Thin-27" x="231.874939"/>
     <use xlink:href="#MarkerFelt-Thin-73" x="240.874939"/>
     <use xlink:href="#MarkerFelt-Thin-20" x="277.874924"/>
     <use xlink:href="#MarkerFelt-Thin-53" x="302.874908"/>
     <use xlink:href="#MarkerFelt-Thin-61" x="357.249893"/>
     <use xlink:href="#MarkerFelt-Thin-6e" x="407.124878"/>
     <use xlink:href="#MarkerFelt-Thin-64" x="459.874863"/>
     <use xlink:href="#MarkerFelt-Thin-62" x="506.249847"/>
     <use xlink:href="#MarkerFelt-Thin-6f" x="554.124832"/>
     <use xlink:href="#MarkerFelt-Thin-78" x="598.249817"/>
    </g>
   </g>
  </g>
 </g>
</svg>
