<?xml version="1.0" encoding="utf-8" standalone="no"?>
<!DOCTYPE svg PUBLIC "-//W3C//DTD SVG 1.1//EN"
  "http://www.w3.org/Graphics/SVG/1.1/DTD/svg11.dtd">
<svg xmlns:xlink="http://www.w3.org/1999/xlink" width="206.922pt" height="21.635122pt" viewBox="0 0 206.922 21.635122" xmlns="http://www.w3.org/2000/svg" version="1.1">
 <metadata>
  <rdf:RDF xmlns:dc="http://purl.org/dc/elements/1.1/" xmlns:cc="http://creativecommons.org/ns#" xmlns:rdf="http://www.w3.org/1999/02/22-rdf-syntax-ns#">
   <cc:Work>
    <dc:type rdf:resource="http://purl.org/dc/dcmitype/StillImage"/>
    <dc:date>2023-11-09T00:53:26.849045</dc:date>
    <dc:format>image/svg+xml</dc:format>
    <dc:creator>
     <cc:Agent>
      <dc:title>Matplotlib v3.7.3, https://matplotlib.org/</dc:title>
     </cc:Agent>
    </dc:creator>
   </cc:Work>
  </rdf:RDF>
 </metadata>
 <defs>
  <style type="text/css">*{stroke-linejoin: round; stroke-linecap: butt}</style>
 </defs>
 <g id="figure_1">
  <g id="patch_1">
   <path d="M 0 21.635122 
L 206.922 21.635122 
L 206.922 0 
L 0 0 
L 0 21.635122 
z
" style="fill: none"/>
  </g>
  <g id="axes_1">
   <g id="text_1">
    <!-- O -->
    <g style="fill: #62d84e" transform="translate(55.8 17.338811) scale(0.24 -0.24)">
     <defs>
      <path id="BlackOpsOne-Regular-4f" d="M 2391 0 
L 2391 844 
L 2919 844 
L 2919 3306 
L 2391 3306 
L 2391 4147 
L 3463 4147 
L 4300 3319 
L 4300 828 
L 3463 0 
L 2391 0 
z
M 1109 0 
L 269 828 
L 269 3319 
L 1109 4147 
L 2172 4147 
L 2172 3306 
L 1653 3306 
L 1653 844 
L 2172 844 
L 2172 0 
L 1109 0 
z
" transform="scale(0.015625)"/>
     </defs>
     <use xlink:href="#BlackOpsOne-Regular-4f"/>
    </g>
   </g>
   <g id="text_2">
    <!-- cean Beach -->
    <g transform="translate(58.032 17.338811) scale(0.24 -0.24)">
     <defs>
      <path id="BlackOpsOne-Regular-63" d="M 1125 0 
L 297 828 
L 297 2491 
L 1125 3319 
L 1678 3319 
L 1678 0 
L 1125 0 
z
M 2509 1994 
L 2509 2491 
L 1897 2491 
L 1897 3319 
L 3063 3319 
L 3891 2491 
L 3891 1994 
L 2509 1994 
z
M 1897 0 
L 1897 775 
L 2509 775 
L 2509 1191 
L 3891 1191 
L 3891 828 
L 3063 0 
L 1897 0 
z
" transform="scale(0.015625)"/>
      <path id="BlackOpsOne-Regular-65" d="M 1125 0 
L 297 828 
L 297 2491 
L 1125 3319 
L 1678 3319 
L 1678 0 
L 1125 0 
z
M 1897 1331 
L 1897 1909 
L 2625 1909 
L 2625 2491 
L 1897 2491 
L 1897 3319 
L 3069 3319 
L 3897 2491 
L 3897 1331 
L 1897 1331 
z
M 1897 0 
L 1897 775 
L 3753 775 
L 3753 416 
L 3341 0 
L 1897 0 
z
" transform="scale(0.015625)"/>
      <path id="BlackOpsOne-Regular-61" d="M 2513 0 
L 2513 2491 
L 547 2491 
L 547 2903 
L 963 3319 
L 3034 3319 
L 3863 2491 
L 3863 0 
L 2513 0 
z
M 825 0 
L 269 547 
L 269 1378 
L 825 1931 
L 2294 1931 
L 2294 1356 
L 1581 1356 
L 1581 775 
L 2294 775 
L 2294 409 
L 1881 0 
L 825 0 
z
" transform="scale(0.015625)"/>
      <path id="BlackOpsOne-Regular-6e" d="M 2538 0 
L 2538 2491 
L 1944 2491 
L 1944 2853 
L 2406 3319 
L 3175 3319 
L 3922 2572 
L 3922 0 
L 2538 0 
z
M 325 0 
L 325 3319 
L 1719 3319 
L 1719 0 
L 325 0 
z
" transform="scale(0.015625)"/>
      <path id="BlackOpsOne-Regular-20" transform="scale(0.015625)"/>
      <path id="BlackOpsOne-Regular-42" d="M 1966 0 
L 1966 828 
L 2991 828 
L 2991 1713 
L 1966 1713 
L 1966 2434 
L 2991 2434 
L 2991 3319 
L 1966 3319 
L 1966 4147 
L 3569 4147 
L 4400 3319 
L 4400 2475 
L 3984 2059 
L 4400 1644 
L 4400 828 
L 3569 0 
L 1966 0 
z
M 366 0 
L 366 4147 
L 1747 4147 
L 1747 0 
L 366 0 
z
" transform="scale(0.015625)"/>
      <path id="BlackOpsOne-Regular-68" d="M 325 0 
L 325 4584 
L 1706 4584 
L 1706 0 
L 325 0 
z
M 2534 0 
L 2534 2491 
L 1925 2491 
L 1925 2909 
L 2331 3319 
L 3088 3319 
L 3919 2491 
L 3919 0 
L 2534 0 
z
" transform="scale(0.015625)"/>
     </defs>
     <use xlink:href="#BlackOpsOne-Regular-63"/>
     <use xlink:href="#BlackOpsOne-Regular-65" x="64.599609"/>
     <use xlink:href="#BlackOpsOne-Regular-61" x="129.589844"/>
     <use xlink:href="#BlackOpsOne-Regular-6e" x="194.580078"/>
     <use xlink:href="#BlackOpsOne-Regular-20" x="260.791016"/>
     <use xlink:href="#BlackOpsOne-Regular-42" x="286.669922"/>
     <use xlink:href="#BlackOpsOne-Regular-65" x="359.667969"/>
     <use xlink:href="#BlackOpsOne-Regular-61" x="424.658203"/>
     <use xlink:href="#BlackOpsOne-Regular-63" x="489.648438"/>
     <use xlink:href="#BlackOpsOne-Regular-68" x="554.248047"/>
    </g>
   </g>
  </g>
 </g>
</svg>
