<?xml version="1.0" encoding="utf-8" standalone="no"?>
<!DOCTYPE svg PUBLIC "-//W3C//DTD SVG 1.1//EN"
  "http://www.w3.org/Graphics/SVG/1.1/DTD/svg11.dtd">
<svg xmlns:xlink="http://www.w3.org/1999/xlink" width="141.51pt" height="24.76875pt" viewBox="0 0 141.51 24.76875" xmlns="http://www.w3.org/2000/svg" version="1.1">
 <metadata>
  <rdf:RDF xmlns:dc="http://purl.org/dc/elements/1.1/" xmlns:cc="http://creativecommons.org/ns#" xmlns:rdf="http://www.w3.org/1999/02/22-rdf-syntax-ns#">
   <cc:Work>
    <dc:type rdf:resource="http://purl.org/dc/dcmitype/StillImage"/>
    <dc:date>2023-10-11T00:18:09.784949</dc:date>
    <dc:format>image/svg+xml</dc:format>
    <dc:creator>
     <cc:Agent>
      <dc:title>Matplotlib v3.7.3, https://matplotlib.org/</dc:title>
     </cc:Agent>
    </dc:creator>
   </cc:Work>
  </rdf:RDF>
 </metadata>
 <defs>
  <style type="text/css">*{stroke-linejoin: round; stroke-linecap: butt}</style>
 </defs>
 <g id="figure_1">
  <g id="patch_1">
   <path d="M 0 24.76875 
L 141.51 24.76875 
L 141.51 0 
L 0 0 
L 0 24.76875 
z
" style="fill: none"/>
  </g>
  <g id="axes_1">
   <g id="text_1">
    <!-- sidewayzSnow -->
    <g style="fill: #ffffff" transform="translate(0 19.5375) scale(0.24 -0.24)">
     <defs>
      <path id="MarkerFelt-Thin-73" d="M 2266 858 
Q 2266 410 1946 93 
Q 1626 -224 1190 -224 
Q 915 -224 621 38 
Q 390 250 205 557 
Q 45 826 64 896 
Q 134 1056 506 1056 
Q 659 1056 749 1011 
Q 902 928 922 800 
Q 941 653 986 614 
Q 1120 410 1229 410 
Q 1312 410 1385 522 
Q 1459 634 1459 787 
Q 1459 883 1427 979 
Q 1395 1075 1082 1274 
Q 704 1510 544 1690 
Q 269 1997 269 2406 
Q 269 2886 550 3248 
Q 832 3610 1267 3610 
Q 1715 3610 1952 3270 
Q 2144 2995 2112 2714 
Q 2182 2637 2182 2458 
Q 2182 2266 2041 2131 
Q 1901 1997 1754 1997 
Q 1536 1997 1376 2285 
Q 1331 2362 1331 2490 
Q 1331 2547 1340 2652 
Q 1350 2758 1350 2803 
Q 1350 2970 1229 2970 
Q 1043 2970 1043 2605 
Q 1043 2234 1286 2010 
Q 1382 1920 1702 1754 
Q 1978 1613 2093 1466 
Q 2266 1242 2266 858 
z
" transform="scale(0.015625)"/>
      <path id="MarkerFelt-Thin-69" d="M 1114 4800 
Q 1133 4781 1133 4736 
Q 1133 4678 1094 4538 
Q 1050 4365 1037 4301 
Q 1024 4237 1050 4019 
Q 1050 3885 970 3843 
Q 890 3802 768 3802 
Q 595 3802 416 3872 
Q 198 3962 198 4109 
Q 198 4154 236 4234 
Q 275 4314 282 4365 
Q 294 4416 282 4621 
Q 269 4781 346 4838 
Q 448 4915 710 4915 
Q 998 4915 1114 4800 
z
M 1197 3238 
Q 1197 3149 1097 2960 
Q 998 2771 998 2650 
L 998 768 
Q 998 640 1068 406 
Q 1139 173 1139 83 
Q 1139 -45 1037 -109 
Q 877 -211 691 -211 
Q 448 -211 346 -45 
Q 211 160 211 1178 
Q 211 1421 220 1936 
Q 230 2451 230 2688 
Q 230 2778 211 2922 
Q 192 3066 192 3130 
Q 192 3341 346 3494 
Q 410 3558 582 3558 
Q 755 3558 928 3504 
Q 1101 3450 1149 3379 
Q 1197 3309 1197 3238 
z
" transform="scale(0.015625)"/>
      <path id="MarkerFelt-Thin-64" d="M 2534 38 
Q 2458 -134 2061 -134 
Q 1811 -134 1728 -32 
Q 1696 0 1696 58 
Q 1696 102 1728 198 
Q 1760 294 1766 346 
Q 1472 -70 1075 -70 
Q 544 -70 301 531 
Q 115 992 115 1728 
Q 115 2406 403 2963 
Q 723 3571 1190 3571 
Q 1453 3571 1728 3149 
L 1728 3974 
Q 1728 4077 1645 4237 
Q 1562 4397 1562 4480 
Q 1562 4544 1594 4608 
Q 1728 4896 2118 4896 
Q 2438 4896 2515 4666 
Q 2541 4589 2541 4518 
Q 2541 4448 2499 4329 
Q 2458 4211 2458 4128 
L 2458 480 
Q 2458 410 2509 310 
Q 2560 211 2560 147 
Q 2560 96 2534 38 
z
M 1651 1728 
Q 1651 2022 1530 2419 
Q 1395 2842 1267 2842 
Q 1120 2842 1030 2451 
Q 960 2131 960 1728 
Q 960 1658 954 1498 
Q 954 1344 954 1261 
Q 954 538 1267 538 
Q 1414 538 1536 954 
Q 1651 1338 1651 1728 
z
" transform="scale(0.015625)"/>
      <path id="MarkerFelt-Thin-65" d="M 2496 672 
Q 2445 429 2150 154 
Q 2106 83 1798 -32 
Q 1446 -166 1190 -147 
Q 710 -115 435 403 
Q 186 883 186 1581 
Q 186 2336 467 2906 
Q 781 3533 1306 3610 
Q 1408 3622 1504 3622 
Q 2266 3622 2342 2688 
Q 2381 2259 2003 1754 
Q 1594 1197 954 973 
Q 1024 717 1062 640 
Q 1152 480 1306 480 
Q 1453 480 1619 595 
Q 1760 691 1811 781 
Q 1837 794 1862 925 
Q 1888 1056 1997 1114 
Q 2035 1133 2086 1133 
Q 2240 1133 2384 982 
Q 2528 832 2496 672 
z
M 1491 2925 
Q 1235 2925 1075 2560 
Q 864 2074 902 1600 
Q 1203 1696 1459 2048 
Q 1715 2400 1715 2675 
Q 1715 2925 1491 2925 
z
" transform="scale(0.015625)"/>
      <path id="MarkerFelt-Thin-77" d="M 4634 3494 
Q 4653 3443 4653 3398 
Q 4653 3296 4538 3149 
Q 4397 2976 4365 2880 
L 3661 755 
Q 3629 653 3629 512 
Q 3629 467 3629 371 
Q 3635 282 3635 237 
Q 3635 0 3475 -115 
Q 3315 -230 3110 -230 
Q 2803 -230 2598 0 
Q 2496 115 2496 262 
Q 2496 480 2483 538 
L 2099 1958 
L 1728 678 
Q 1709 608 1696 410 
Q 1683 250 1626 154 
Q 1382 -243 1030 -243 
Q 909 -243 806 -173 
Q 678 -90 652 83 
Q 627 256 602 422 
L 38 2611 
Q 19 2694 -77 2918 
Q -154 3091 -154 3213 
Q -154 3296 -122 3379 
Q -64 3558 339 3558 
Q 563 3558 640 3494 
Q 736 3411 742 3226 
Q 749 2944 755 2918 
L 1139 1382 
L 1677 2957 
Q 1690 3002 1690 3046 
Q 1690 3085 1674 3158 
Q 1658 3232 1658 3270 
Q 1658 3411 1811 3488 
Q 1939 3558 2093 3558 
Q 2304 3558 2445 3456 
Q 2624 3328 2643 3126 
Q 2662 2925 2675 2726 
L 3059 1190 
L 3674 3034 
Q 3686 3072 3686 3117 
Q 3686 3168 3667 3254 
Q 3648 3341 3648 3386 
Q 3648 3443 3674 3494 
Q 3770 3667 4179 3667 
Q 4563 3667 4634 3494 
z
" transform="scale(0.015625)"/>
      <path id="MarkerFelt-Thin-61" d="M 2854 269 
Q 2758 -45 2381 -45 
Q 2253 -45 2176 0 
Q 2074 70 2035 282 
Q 1958 646 1882 851 
Q 1862 499 1497 137 
Q 1133 -224 762 -224 
Q 294 -224 115 397 
Q 51 627 51 832 
Q 51 1427 659 1850 
Q 1158 2144 1664 2432 
Q 1690 2541 1690 2643 
Q 1690 2842 1581 2877 
Q 1472 2912 1395 2912 
Q 1261 2912 1174 2825 
Q 1088 2739 1011 2662 
Q 934 2611 813 2426 
Q 717 2278 602 2266 
Q 435 2246 300 2380 
Q 166 2515 166 2694 
Q 166 2797 218 2880 
Q 365 3123 659 3302 
Q 1107 3571 1779 3571 
Q 2208 3571 2368 3162 
Q 2470 2886 2522 2131 
Q 2579 1216 2662 794 
Q 2675 710 2771 582 
Q 2867 454 2867 358 
Q 2867 314 2854 269 
z
M 1741 1843 
Q 1549 1741 1360 1632 
Q 1171 1523 1011 1344 
Q 781 1082 781 896 
Q 781 742 896 576 
Q 960 486 1037 486 
Q 1203 486 1398 857 
Q 1594 1229 1741 1843 
z
" transform="scale(0.015625)"/>
      <path id="MarkerFelt-Thin-79" d="M 2995 3187 
Q 3014 3059 2931 2912 
Q 2784 2669 2778 2650 
Q 2509 2010 1946 589 
Q 1690 -90 1626 -634 
Q 1613 -685 1619 -858 
Q 1626 -998 1574 -1069 
Q 1472 -1203 1267 -1203 
Q 902 -1203 794 -928 
Q 768 -858 768 -806 
Q 768 -742 819 -662 
Q 870 -582 883 -531 
L 1037 269 
L 115 2918 
Q 96 2970 13 3130 
Q -45 3245 -45 3328 
Q -45 3373 -32 3418 
Q 32 3648 403 3648 
Q 634 3648 768 3571 
Q 928 3475 954 3232 
Q 986 2835 998 2790 
L 1421 1459 
L 2074 3110 
Q 2080 3130 2131 3392 
Q 2163 3552 2266 3610 
Q 2330 3648 2413 3648 
Q 2598 3648 2784 3510 
Q 2970 3373 2995 3187 
z
" transform="scale(0.015625)"/>
      <path id="MarkerFelt-Thin-7a" d="M 3021 3034 
Q 3002 2893 2867 2778 
Q 2669 2598 2637 2560 
L 1229 653 
L 2189 806 
Q 2259 819 2380 873 
Q 2502 928 2579 928 
Q 2758 928 2886 765 
Q 3014 602 3014 416 
Q 3014 256 2928 163 
Q 2842 70 2707 70 
Q 2675 70 2522 90 
Q 2400 102 2317 90 
L 1126 -96 
Q 1050 -109 896 -186 
Q 768 -256 666 -250 
Q 429 -237 249 -86 
Q 70 64 70 269 
Q 70 307 77 346 
Q 102 499 205 589 
Q 365 730 384 755 
L 1818 2739 
L 1126 2650 
Q 1075 2643 988 2611 
Q 902 2579 851 2579 
Q 794 2579 730 2611 
Q 365 2778 365 3053 
Q 365 3206 486 3354 
Q 563 3450 704 3450 
Q 749 3450 902 3424 
Q 1030 3411 1114 3418 
L 2112 3533 
Q 2189 3539 2323 3587 
Q 2458 3635 2534 3635 
Q 2726 3635 2886 3430 
Q 3046 3226 3021 3034 
z
" transform="scale(0.015625)"/>
      <path id="MarkerFelt-Thin-53" d="M 3021 1062 
Q 3021 563 2704 188 
Q 2387 -186 1920 -186 
Q 979 -186 538 710 
Q 58 1024 58 1242 
Q 58 1350 192 1421 
Q 454 1562 672 1562 
Q 1146 1562 1306 998 
Q 1382 845 1465 691 
Q 1549 538 1690 538 
Q 2067 538 2067 1075 
Q 2067 1555 1894 1722 
Q 1818 1792 1280 2016 
Q 851 2195 589 2630 
Q 352 3027 346 3456 
Q 339 4147 691 4685 
Q 1062 5261 1613 5261 
Q 2253 5261 2547 4749 
Q 2739 4429 2765 3955 
Q 2835 3712 2835 3514 
Q 2835 3386 2803 3302 
Q 2707 3066 2426 3066 
Q 2214 3066 2042 3219 
Q 1850 3386 1805 3686 
Q 1786 3789 1846 3891 
Q 1907 3994 1907 4006 
Q 1907 4019 1894 4032 
Q 1901 4064 1901 4096 
Q 1901 4288 1677 4275 
Q 1459 4262 1338 3987 
Q 1229 3750 1242 3443 
Q 1261 2899 1958 2573 
Q 2509 2317 2720 2067 
Q 3021 1709 3021 1062 
z
" transform="scale(0.015625)"/>
      <path id="MarkerFelt-Thin-6e" d="M 3072 410 
Q 3059 269 2886 169 
Q 2714 70 2502 70 
Q 2189 70 2074 269 
Q 2125 2240 1958 2266 
Q 1798 2291 1178 499 
Q 1178 307 1178 115 
Q 1171 -115 1052 -211 
Q 934 -307 800 -307 
Q 570 -307 307 -58 
Q 230 6 224 915 
Q 230 358 230 2982 
Q 230 3040 217 3139 
Q 205 3238 205 3283 
Q 205 3405 269 3494 
Q 346 3610 512 3610 
Q 685 3610 873 3504 
Q 1062 3398 1101 3302 
Q 1126 3238 1126 3174 
Q 1126 3110 1075 2995 
Q 1024 2880 1024 2803 
L 1024 1920 
Q 1427 2778 1632 3053 
Q 1997 3526 2458 3494 
Q 2733 3475 2848 2982 
Q 2938 2611 2944 1882 
Q 2944 1306 2944 730 
Q 2957 685 3034 570 
Q 3078 506 3072 410 
z
" transform="scale(0.015625)"/>
      <path id="MarkerFelt-Thin-6f" d="M 2112 3302 
Q 2541 2867 2541 1837 
Q 2541 1037 2240 474 
Q 1901 -160 1306 -160 
Q 717 -160 397 410 
Q 115 909 115 1677 
Q 115 2355 333 2893 
Q 563 3469 922 3571 
Q 1107 3622 1306 3622 
Q 1798 3622 2112 3302 
z
M 1382 2995 
Q 1171 3014 1018 2598 
Q 883 2221 883 1805 
Q 883 1203 934 954 
Q 1024 506 1306 461 
Q 1485 435 1638 954 
Q 1786 1453 1786 2022 
Q 1786 2957 1382 2995 
z
" transform="scale(0.015625)"/>
     </defs>
     <use xlink:href="#MarkerFelt-Thin-73"/>
     <use xlink:href="#MarkerFelt-Thin-69" x="41.124985"/>
     <use xlink:href="#MarkerFelt-Thin-64" x="63.249969"/>
     <use xlink:href="#MarkerFelt-Thin-65" x="106.249954"/>
     <use xlink:href="#MarkerFelt-Thin-77" x="152.374939"/>
     <use xlink:href="#MarkerFelt-Thin-61" x="224.374924"/>
     <use xlink:href="#MarkerFelt-Thin-79" x="270.374908"/>
     <use xlink:href="#MarkerFelt-Thin-7a" x="317.374893"/>
     <use xlink:href="#MarkerFelt-Thin-53" x="365.374878"/>
     <use xlink:href="#MarkerFelt-Thin-6e" x="417.874863"/>
     <use xlink:href="#MarkerFelt-Thin-6f" x="470.624847"/>
     <use xlink:href="#MarkerFelt-Thin-77" x="517.624832"/>
    </g>
   </g>
  </g>
 </g>
</svg>
