<?xml version="1.0" encoding="utf-8" standalone="no"?>
<!DOCTYPE svg PUBLIC "-//W3C//DTD SVG 1.1//EN"
  "http://www.w3.org/Graphics/SVG/1.1/DTD/svg11.dtd">
<svg xmlns:xlink="http://www.w3.org/1999/xlink" width="178.56pt" height="24.76875pt" viewBox="0 0 178.56 24.76875" xmlns="http://www.w3.org/2000/svg" version="1.1">
 <metadata>
  <rdf:RDF xmlns:dc="http://purl.org/dc/elements/1.1/" xmlns:cc="http://creativecommons.org/ns#" xmlns:rdf="http://www.w3.org/1999/02/22-rdf-syntax-ns#">
   <cc:Work>
    <dc:type rdf:resource="http://purl.org/dc/dcmitype/StillImage"/>
    <dc:date>2024-04-02T20:04:00.274469</dc:date>
    <dc:format>image/svg+xml</dc:format>
    <dc:creator>
     <cc:Agent>
      <dc:title>Matplotlib v3.8.2, https://matplotlib.org/</dc:title>
     </cc:Agent>
    </dc:creator>
   </cc:Work>
  </rdf:RDF>
 </metadata>
 <defs>
  <style type="text/css">*{stroke-linejoin: round; stroke-linecap: butt}</style>
 </defs>
 <g id="figure_1">
  <g id="patch_1">
   <path d="M 0 24.76875 
L 178.56 24.76875 
L 178.56 0 
L 0 0 
L 0 24.76875 
z
" style="fill: none"/>
  </g>
  <g id="axes_1">
   <g id="text_1">
    <!-- Vancouver 4/2/24 -->
    <g style="fill: #62d84e" transform="translate(0 19.5375) scale(0.24 -0.24)">
     <defs>
      <path id="MarkerFelt-Thin-56" d="M 3149 4378 
L 2112 614 
Q 2106 589 2106 557 
Q 2106 512 2122 397 
Q 2138 282 2138 218 
Q 2138 26 2026 -92 
Q 1914 -211 1754 -211 
Q 1517 -211 1235 41 
Q 954 294 954 525 
Q 954 563 986 666 
Q 1011 749 998 806 
L 269 4454 
Q 262 4499 137 4595 
Q 13 4691 13 4800 
Q 13 5088 557 5088 
Q 794 5088 989 5011 
Q 1184 4934 1229 4800 
Q 1242 4762 1242 4723 
Q 1242 4666 1190 4557 
Q 1139 4448 1152 4378 
L 1613 1971 
L 2266 4531 
Q 2278 4589 2278 4666 
Q 2278 4698 2278 4752 
Q 2278 4806 2278 4832 
Q 2278 5030 2458 5146 
Q 2573 5216 2739 5216 
Q 2995 5216 3219 5078 
Q 3443 4941 3443 4755 
Q 3443 4704 3417 4643 
Q 3392 4582 3280 4515 
Q 3168 4448 3149 4378 
z
" transform="scale(0.015625)"/>
      <path id="MarkerFelt-Thin-61" d="M 2854 269 
Q 2758 -45 2381 -45 
Q 2253 -45 2176 0 
Q 2074 70 2035 282 
Q 1958 646 1882 851 
Q 1862 499 1497 137 
Q 1133 -224 762 -224 
Q 294 -224 115 397 
Q 51 627 51 832 
Q 51 1427 659 1850 
Q 1158 2144 1664 2432 
Q 1690 2541 1690 2643 
Q 1690 2842 1581 2877 
Q 1472 2912 1395 2912 
Q 1261 2912 1174 2825 
Q 1088 2739 1011 2662 
Q 934 2611 813 2426 
Q 717 2278 602 2266 
Q 435 2246 300 2380 
Q 166 2515 166 2694 
Q 166 2797 218 2880 
Q 365 3123 659 3302 
Q 1107 3571 1779 3571 
Q 2208 3571 2368 3162 
Q 2470 2886 2522 2131 
Q 2579 1216 2662 794 
Q 2675 710 2771 582 
Q 2867 454 2867 358 
Q 2867 314 2854 269 
z
M 1741 1843 
Q 1549 1741 1360 1632 
Q 1171 1523 1011 1344 
Q 781 1082 781 896 
Q 781 742 896 576 
Q 960 486 1037 486 
Q 1203 486 1398 857 
Q 1594 1229 1741 1843 
z
" transform="scale(0.015625)"/>
      <path id="MarkerFelt-Thin-6e" d="M 3072 410 
Q 3059 269 2886 169 
Q 2714 70 2502 70 
Q 2189 70 2074 269 
Q 2125 2240 1958 2266 
Q 1798 2291 1178 499 
Q 1178 307 1178 115 
Q 1171 -115 1052 -211 
Q 934 -307 800 -307 
Q 570 -307 307 -58 
Q 230 6 224 915 
Q 230 358 230 2982 
Q 230 3040 217 3139 
Q 205 3238 205 3283 
Q 205 3405 269 3494 
Q 346 3610 512 3610 
Q 685 3610 873 3504 
Q 1062 3398 1101 3302 
Q 1126 3238 1126 3174 
Q 1126 3110 1075 2995 
Q 1024 2880 1024 2803 
L 1024 1920 
Q 1427 2778 1632 3053 
Q 1997 3526 2458 3494 
Q 2733 3475 2848 2982 
Q 2938 2611 2944 1882 
Q 2944 1306 2944 730 
Q 2957 685 3034 570 
Q 3078 506 3072 410 
z
" transform="scale(0.015625)"/>
      <path id="MarkerFelt-Thin-63" d="M 2362 1062 
Q 2355 922 2240 774 
Q 2061 563 2010 454 
Q 1606 -160 1178 -160 
Q 672 -160 390 352 
Q 141 819 141 1530 
Q 141 2342 448 2944 
Q 787 3610 1325 3610 
Q 1747 3610 2010 3142 
Q 2227 2746 2227 2278 
Q 2227 2150 2208 2054 
Q 2163 1837 1843 1837 
Q 1594 1837 1459 1978 
Q 1395 2048 1395 2304 
Q 1395 2368 1402 2490 
Q 1402 2618 1402 2675 
Q 1402 2963 1299 2963 
Q 1190 2963 1068 2332 
Q 947 1702 947 1152 
Q 947 512 1139 512 
Q 1389 512 1510 915 
Q 1562 973 1568 1146 
Q 1568 1299 1645 1347 
Q 1722 1395 1869 1395 
Q 2061 1395 2202 1312 
Q 2368 1216 2362 1062 
z
" transform="scale(0.015625)"/>
      <path id="MarkerFelt-Thin-6f" d="M 2112 3302 
Q 2541 2867 2541 1837 
Q 2541 1037 2240 474 
Q 1901 -160 1306 -160 
Q 717 -160 397 410 
Q 115 909 115 1677 
Q 115 2355 333 2893 
Q 563 3469 922 3571 
Q 1107 3622 1306 3622 
Q 1798 3622 2112 3302 
z
M 1382 2995 
Q 1171 3014 1018 2598 
Q 883 2221 883 1805 
Q 883 1203 934 954 
Q 1024 506 1306 461 
Q 1485 435 1638 954 
Q 1786 1453 1786 2022 
Q 1786 2957 1382 2995 
z
" transform="scale(0.015625)"/>
      <path id="MarkerFelt-Thin-75" d="M 2509 3123 
Q 2522 3027 2470 2918 
Q 2406 2771 2394 2701 
Q 2394 1370 2285 851 
Q 2048 -237 1280 -237 
Q 160 -237 160 1805 
Q 160 2355 243 2970 
Q 198 3117 198 3232 
Q 198 3418 320 3546 
Q 422 3654 621 3654 
Q 781 3654 921 3587 
Q 1062 3520 1088 3430 
Q 1101 3386 1101 3341 
Q 1101 3258 1030 3075 
Q 960 2893 973 2778 
Q 909 2419 909 1875 
Q 909 1325 979 960 
Q 1069 538 1229 538 
Q 1498 538 1581 1446 
Q 1626 1901 1626 2893 
Q 1626 2957 1606 3078 
Q 1587 3200 1587 3258 
Q 1587 3411 1702 3469 
Q 1766 3501 1882 3501 
Q 2093 3501 2272 3411 
Q 2483 3302 2509 3123 
z
" transform="scale(0.015625)"/>
      <path id="MarkerFelt-Thin-76" d="M 2918 3456 
Q 2963 3373 2963 3283 
Q 2963 3155 2854 2963 
Q 2701 2707 2675 2637 
Q 2394 1830 1952 602 
Q 1869 179 1741 0 
Q 1581 -243 1267 -224 
Q 966 -205 864 -102 
Q 787 -26 787 134 
Q 787 160 787 205 
Q 787 250 787 269 
Q 787 384 768 461 
L 115 2803 
Q 96 2880 -51 3053 
Q -173 3187 -147 3302 
Q -83 3584 307 3584 
Q 390 3584 461 3571 
Q 710 3520 954 2694 
Q 1152 1920 1357 1152 
L 2022 3200 
Q 2074 3354 2106 3411 
Q 2163 3514 2268 3571 
Q 2374 3629 2528 3629 
Q 2822 3629 2918 3456 
z
" transform="scale(0.015625)"/>
      <path id="MarkerFelt-Thin-65" d="M 2496 672 
Q 2445 429 2150 154 
Q 2106 83 1798 -32 
Q 1446 -166 1190 -147 
Q 710 -115 435 403 
Q 186 883 186 1581 
Q 186 2336 467 2906 
Q 781 3533 1306 3610 
Q 1408 3622 1504 3622 
Q 2266 3622 2342 2688 
Q 2381 2259 2003 1754 
Q 1594 1197 954 973 
Q 1024 717 1062 640 
Q 1152 480 1306 480 
Q 1453 480 1619 595 
Q 1760 691 1811 781 
Q 1837 794 1862 925 
Q 1888 1056 1997 1114 
Q 2035 1133 2086 1133 
Q 2240 1133 2384 982 
Q 2528 832 2496 672 
z
M 1491 2925 
Q 1235 2925 1075 2560 
Q 864 2074 902 1600 
Q 1203 1696 1459 2048 
Q 1715 2400 1715 2675 
Q 1715 2925 1491 2925 
z
" transform="scale(0.015625)"/>
      <path id="MarkerFelt-Thin-72" d="M 2611 3264 
Q 2586 3130 2368 3078 
Q 2112 3014 2042 2931 
L 998 1728 
L 998 755 
Q 998 614 1078 470 
Q 1158 326 1158 250 
Q 1158 173 1114 77 
Q 1005 -166 672 -166 
Q 442 -166 307 -19 
Q 218 77 218 224 
Q 218 275 230 390 
Q 243 506 243 576 
L 243 2970 
Q 243 3027 192 3110 
Q 141 3194 141 3245 
Q 141 3283 166 3334 
Q 250 3488 685 3488 
Q 1024 3488 1069 3328 
Q 1088 3264 1088 3219 
Q 1088 3149 1037 3110 
Q 986 3072 986 3034 
L 998 2803 
L 1549 3386 
Q 1645 3494 1750 3603 
Q 1856 3712 1997 3725 
Q 2214 3744 2416 3629 
Q 2618 3514 2618 3328 
Q 2618 3296 2611 3264 
z
" transform="scale(0.015625)"/>
      <path id="MarkerFelt-Thin-20" transform="scale(0.015625)"/>
      <path id="MarkerFelt-Thin-34" d="M 3648 2227 
Q 3661 2054 3517 1926 
Q 3373 1798 3200 1798 
Q 3155 1798 3062 1824 
Q 2970 1850 2906 1843 
Q 2797 1824 2560 1818 
Q 2560 902 2547 832 
Q 2547 704 2633 493 
Q 2720 282 2720 192 
Q 2720 -26 2355 -198 
Q 2317 -218 2259 -218 
Q 2029 -218 1760 32 
Q 1491 282 1523 525 
Q 1530 576 1635 701 
Q 1741 826 1741 973 
Q 1728 1459 1728 1651 
Q 1421 1568 922 1498 
Q 864 1485 749 1402 
Q 659 1331 576 1344 
Q 403 1370 230 1574 
Q 38 1805 64 2035 
Q 77 2182 198 2246 
Q 352 2330 384 2381 
L 1690 4723 
Q 1728 4794 1725 4954 
Q 1722 5114 1779 5184 
Q 1862 5286 2003 5286 
Q 2259 5286 2556 5024 
Q 2854 4762 2854 4518 
Q 2854 4397 2700 4089 
Q 2547 3782 2547 3584 
L 2547 2573 
Q 2714 2643 3072 2726 
Q 3270 2739 3452 2588 
Q 3635 2438 3648 2227 
z
M 1766 3418 
L 1190 2304 
L 1728 2419 
L 1766 3418 
z
" transform="scale(0.015625)"/>
      <path id="MarkerFelt-Thin-2f" d="M 3264 4723 
Q 3264 4646 3136 4531 
Q 2982 4403 2944 4326 
L 973 589 
Q 934 525 826 166 
Q 749 -64 653 -83 
Q 499 -115 262 19 
Q 0 173 0 384 
Q 6 486 90 589 
Q 211 736 230 768 
L 2342 4723 
Q 2368 4768 2413 4979 
Q 2451 5133 2547 5184 
Q 2611 5216 2694 5216 
Q 2893 5216 3078 5075 
Q 3270 4915 3264 4723 
z
" transform="scale(0.015625)"/>
      <path id="MarkerFelt-Thin-32" d="M 3405 787 
Q 3507 646 3507 512 
Q 3507 326 3321 198 
Q 3136 70 2944 70 
Q 2854 70 2675 109 
Q 2522 147 2464 141 
Q 2170 166 1613 45 
Q 902 -109 851 -115 
Q 678 -134 435 -32 
Q 147 90 141 275 
Q 134 410 294 499 
Q 486 608 525 685 
Q 986 1178 1594 2042 
Q 2522 3366 2522 3987 
Q 2522 4218 2387 4346 
Q 2374 4352 2355 4352 
Q 2253 4352 1965 4109 
Q 1709 3891 1651 3808 
Q 1581 3757 1530 3558 
Q 1485 3386 1331 3322 
Q 1286 3302 1222 3302 
Q 1030 3302 826 3450 
Q 602 3616 576 3821 
Q 563 3923 768 4128 
Q 973 4333 1216 4474 
Q 1939 5210 2445 5203 
Q 3386 5184 3386 4230 
Q 3386 3469 2816 2406 
Q 2278 1395 1613 800 
Q 1792 826 2662 1005 
Q 2957 1062 2944 1062 
Q 3200 1062 3405 787 
z
" transform="scale(0.015625)"/>
     </defs>
     <use xlink:href="#MarkerFelt-Thin-56"/>
     <use xlink:href="#MarkerFelt-Thin-61" x="48.499985"/>
     <use xlink:href="#MarkerFelt-Thin-6e" x="98.374969"/>
     <use xlink:href="#MarkerFelt-Thin-63" x="150.749954"/>
     <use xlink:href="#MarkerFelt-Thin-6f" x="193.499939"/>
     <use xlink:href="#MarkerFelt-Thin-75" x="239.499924"/>
     <use xlink:href="#MarkerFelt-Thin-76" x="288.249908"/>
     <use xlink:href="#MarkerFelt-Thin-65" x="334.374893"/>
     <use xlink:href="#MarkerFelt-Thin-72" x="378.374878"/>
     <use xlink:href="#MarkerFelt-Thin-20" x="416.374863"/>
     <use xlink:href="#MarkerFelt-Thin-34" x="441.374847"/>
     <use xlink:href="#MarkerFelt-Thin-2f" x="490.749832"/>
     <use xlink:href="#MarkerFelt-Thin-32" x="530.624817"/>
     <use xlink:href="#MarkerFelt-Thin-2f" x="590.124802"/>
     <use xlink:href="#MarkerFelt-Thin-32" x="629.999786"/>
     <use xlink:href="#MarkerFelt-Thin-34" x="686.999771"/>
    </g>
   </g>
  </g>
 </g>
</svg>
