<?xml version="1.0" encoding="utf-8" standalone="no"?>
<!DOCTYPE svg PUBLIC "-//W3C//DTD SVG 1.1//EN"
  "http://www.w3.org/Graphics/SVG/1.1/DTD/svg11.dtd">
<svg xmlns:xlink="http://www.w3.org/1999/xlink" width="186.21375pt" height="21.635122pt" viewBox="0 0 186.21375 21.635122" xmlns="http://www.w3.org/2000/svg" version="1.1">
 <metadata>
  <rdf:RDF xmlns:dc="http://purl.org/dc/elements/1.1/" xmlns:cc="http://creativecommons.org/ns#" xmlns:rdf="http://www.w3.org/1999/02/22-rdf-syntax-ns#">
   <cc:Work>
    <dc:type rdf:resource="http://purl.org/dc/dcmitype/StillImage"/>
    <dc:date>2024-07-15T17:30:59.077841</dc:date>
    <dc:format>image/svg+xml</dc:format>
    <dc:creator>
     <cc:Agent>
      <dc:title>Matplotlib v3.8.2, https://matplotlib.org/</dc:title>
     </cc:Agent>
    </dc:creator>
   </cc:Work>
  </rdf:RDF>
 </metadata>
 <defs>
  <style type="text/css">*{stroke-linejoin: round; stroke-linecap: butt}</style>
 </defs>
 <g id="figure_1">
  <g id="patch_1">
   <path d="M 0 21.635122 
L 186.21375 21.635122 
L 186.21375 0 
L 0 0 
L 0 21.635122 
z
" style="fill: none"/>
  </g>
  <g id="axes_1">
   <g id="text_1">
    <!-- Main PDI - Dev -->
    <g style="fill: #c50201" transform="translate(0 17.338811) scale(0.24 -0.24)">
     <defs>
      <path id="BlackOpsOne-Regular-4d" d="M 2828 0 
L 369 4147 
L 1838 4147 
L 2950 2303 
L 3825 3803 
L 3825 1716 
L 2828 0 
z
M 4028 0 
L 4028 4147 
L 5409 4147 
L 5409 0 
L 4028 0 
z
M 366 0 
L 366 3763 
L 1656 1597 
L 1656 0 
L 366 0 
z
" transform="scale(0.015625)"/>
      <path id="BlackOpsOne-Regular-61" d="M 2513 0 
L 2513 2491 
L 547 2491 
L 547 2903 
L 963 3319 
L 3034 3319 
L 3863 2491 
L 3863 0 
L 2513 0 
z
M 825 0 
L 269 547 
L 269 1378 
L 825 1931 
L 2294 1931 
L 2294 1356 
L 1581 1356 
L 1581 775 
L 2294 775 
L 2294 409 
L 1881 0 
L 825 0 
z
" transform="scale(0.015625)"/>
      <path id="BlackOpsOne-Regular-69" d="M 328 3731 
L 328 4613 
L 1713 4613 
L 1713 3731 
L 328 3731 
z
M 328 0 
L 328 3319 
L 1713 3319 
L 1713 0 
L 328 0 
z
" transform="scale(0.015625)"/>
      <path id="BlackOpsOne-Regular-6e" d="M 2538 0 
L 2538 2491 
L 1944 2491 
L 1944 2853 
L 2406 3319 
L 3175 3319 
L 3922 2572 
L 3922 0 
L 2538 0 
z
M 325 0 
L 325 3319 
L 1719 3319 
L 1719 0 
L 325 0 
z
" transform="scale(0.015625)"/>
      <path id="BlackOpsOne-Regular-20" transform="scale(0.015625)"/>
      <path id="BlackOpsOne-Regular-50" d="M 1941 1066 
L 1941 1897 
L 2944 1897 
L 2944 3319 
L 1941 3319 
L 1941 4147 
L 3491 4147 
L 4319 3319 
L 4319 1897 
L 3491 1066 
L 1941 1066 
z
M 366 0 
L 366 4147 
L 1722 4147 
L 1722 0 
L 366 0 
z
" transform="scale(0.015625)"/>
      <path id="BlackOpsOne-Regular-44" d="M 1966 0 
L 1966 828 
L 2991 828 
L 2991 3319 
L 1966 3319 
L 1966 4147 
L 3544 4147 
L 4375 3319 
L 4375 828 
L 3544 0 
L 1966 0 
z
M 366 0 
L 366 4147 
L 1747 4147 
L 1747 0 
L 366 0 
z
" transform="scale(0.015625)"/>
      <path id="BlackOpsOne-Regular-49" d="M 303 0 
L 303 884 
L 719 884 
L 719 3266 
L 303 3266 
L 303 4147 
L 2516 4147 
L 2516 3266 
L 2100 3266 
L 2100 884 
L 2516 884 
L 2516 0 
L 303 0 
z
" transform="scale(0.015625)"/>
      <path id="BlackOpsOne-Regular-2d" d="M 581 1566 
L 581 2313 
L 3341 2313 
L 3341 1566 
L 581 1566 
z
" transform="scale(0.015625)"/>
      <path id="BlackOpsOne-Regular-65" d="M 1125 0 
L 297 828 
L 297 2491 
L 1125 3319 
L 1678 3319 
L 1678 0 
L 1125 0 
z
M 1897 1331 
L 1897 1909 
L 2625 1909 
L 2625 2491 
L 1897 2491 
L 1897 3319 
L 3069 3319 
L 3897 2491 
L 3897 1331 
L 1897 1331 
z
M 1897 0 
L 1897 775 
L 3753 775 
L 3753 416 
L 3341 0 
L 1897 0 
z
" transform="scale(0.015625)"/>
      <path id="BlackOpsOne-Regular-76" d="M 1197 0 
L -44 3319 
L 1328 3319 
L 2509 0 
L 1197 0 
z
M 2650 184 
L 2031 1941 
L 2478 3319 
L 3769 3319 
L 2650 184 
z
" transform="scale(0.015625)"/>
     </defs>
     <use xlink:href="#BlackOpsOne-Regular-4d"/>
     <use xlink:href="#BlackOpsOne-Regular-61" x="90.234375"/>
     <use xlink:href="#BlackOpsOne-Regular-69" x="155.224609"/>
     <use xlink:href="#BlackOpsOne-Regular-6e" x="187.109375"/>
     <use xlink:href="#BlackOpsOne-Regular-20" x="253.320312"/>
     <use xlink:href="#BlackOpsOne-Regular-50" x="279.199219"/>
     <use xlink:href="#BlackOpsOne-Regular-44" x="350.488281"/>
     <use xlink:href="#BlackOpsOne-Regular-49" x="423.046875"/>
     <use xlink:href="#BlackOpsOne-Regular-20" x="467.089844"/>
     <use xlink:href="#BlackOpsOne-Regular-2d" x="492.96875"/>
     <use xlink:href="#BlackOpsOne-Regular-20" x="554.248047"/>
     <use xlink:href="#BlackOpsOne-Regular-44" x="580.126953"/>
     <use xlink:href="#BlackOpsOne-Regular-65" x="652.685547"/>
     <use xlink:href="#BlackOpsOne-Regular-76" x="717.675781"/>
    </g>
   </g>
  </g>
 </g>
</svg>
