<?xml version="1.0" encoding="utf-8" standalone="no"?>
<!DOCTYPE svg PUBLIC "-//W3C//DTD SVG 1.1//EN"
  "http://www.w3.org/Graphics/SVG/1.1/DTD/svg11.dtd">
<svg xmlns:xlink="http://www.w3.org/1999/xlink" width="387.69375pt" height="21.635122pt" viewBox="0 0 387.69375 21.635122" xmlns="http://www.w3.org/2000/svg" version="1.1">
 <metadata>
  <rdf:RDF xmlns:dc="http://purl.org/dc/elements/1.1/" xmlns:cc="http://creativecommons.org/ns#" xmlns:rdf="http://www.w3.org/1999/02/22-rdf-syntax-ns#">
   <cc:Work>
    <dc:type rdf:resource="http://purl.org/dc/dcmitype/StillImage"/>
    <dc:date>2024-05-28T22:04:46.980765</dc:date>
    <dc:format>image/svg+xml</dc:format>
    <dc:creator>
     <cc:Agent>
      <dc:title>Matplotlib v3.8.2, https://matplotlib.org/</dc:title>
     </cc:Agent>
    </dc:creator>
   </cc:Work>
  </rdf:RDF>
 </metadata>
 <defs>
  <style type="text/css">*{stroke-linejoin: round; stroke-linecap: butt}</style>
 </defs>
 <g id="figure_1">
  <g id="patch_1">
   <path d="M -0 21.635122 
L 387.69375 21.635122 
L 387.69375 0 
L -0 0 
L -0 21.635122 
z
" style="fill: none"/>
  </g>
  <g id="axes_1">
   <g id="text_1">
    <!-- Go Hard, Go Alone, Go Without -->
    <g style="fill: #62d84e" transform="translate(0 17.338811) scale(0.24 -0.24)">
     <defs>
      <path id="BlackOpsOne-Regular-47" d="M 1188 0 
L 359 828 
L 359 3319 
L 1188 4147 
L 1741 4147 
L 1741 828 
L 2925 828 
L 2925 0 
L 1188 0 
z
M 2988 2903 
L 2988 3319 
L 1959 3319 
L 1959 4147 
L 3644 4147 
L 4369 3319 
L 4369 2903 
L 2988 2903 
z
M 3144 0 
L 3144 1478 
L 2472 1478 
L 2472 2300 
L 4369 2300 
L 4369 0 
L 3144 0 
z
" transform="scale(0.015625)"/>
      <path id="BlackOpsOne-Regular-6f" d="M 1125 0 
L 297 828 
L 297 2491 
L 1125 3319 
L 2053 3319 
L 2053 2491 
L 1694 2491 
L 1694 775 
L 2053 775 
L 2053 0 
L 1125 0 
z
M 2272 0 
L 2272 775 
L 2616 775 
L 2616 2491 
L 2272 2491 
L 2272 3319 
L 3197 3319 
L 4025 2491 
L 4025 828 
L 3197 0 
L 2272 0 
z
" transform="scale(0.015625)"/>
      <path id="BlackOpsOne-Regular-20" transform="scale(0.015625)"/>
      <path id="BlackOpsOne-Regular-48" d="M 2991 0 
L 2991 1684 
L 1966 1684 
L 1966 2516 
L 2981 2516 
L 2981 4147 
L 4375 4147 
L 4375 0 
L 2991 0 
z
M 366 0 
L 366 4147 
L 1747 4147 
L 1747 0 
L 366 0 
z
" transform="scale(0.015625)"/>
      <path id="BlackOpsOne-Regular-61" d="M 2513 0 
L 2513 2491 
L 547 2491 
L 547 2903 
L 963 3319 
L 3034 3319 
L 3863 2491 
L 3863 0 
L 2513 0 
z
M 825 0 
L 269 547 
L 269 1378 
L 825 1931 
L 2294 1931 
L 2294 1356 
L 1581 1356 
L 1581 775 
L 2294 775 
L 2294 409 
L 1881 0 
L 825 0 
z
" transform="scale(0.015625)"/>
      <path id="BlackOpsOne-Regular-72" d="M 325 0 
L 325 3319 
L 1706 3319 
L 1706 0 
L 325 0 
z
M 2516 1684 
L 2516 2491 
L 1928 2491 
L 1928 2853 
L 2391 3319 
L 3228 3319 
L 3900 2544 
L 3900 1684 
L 2516 1684 
z
" transform="scale(0.015625)"/>
      <path id="BlackOpsOne-Regular-64" d="M 2563 0 
L 2563 4584 
L 3944 4584 
L 3944 0 
L 2563 0 
z
M 1044 0 
L 297 747 
L 297 2572 
L 1044 3319 
L 2344 3319 
L 2344 2491 
L 1678 2491 
L 1678 775 
L 2344 775 
L 2344 328 
L 2016 0 
L 1044 0 
z
" transform="scale(0.015625)"/>
      <path id="BlackOpsOne-Regular-2c" d="M 459 -828 
L 844 0 
L 459 0 
L 459 966 
L 1841 966 
L 1841 0 
L 1288 -828 
L 459 -828 
z
" transform="scale(0.015625)"/>
      <path id="BlackOpsOne-Regular-41" d="M 3263 0 
L 3088 453 
L 1731 453 
L 2019 1275 
L 2769 1275 
L 1659 4147 
L 3006 4147 
L 4659 0 
L 3263 0 
z
M 28 0 
L 1509 3959 
L 2122 2313 
L 1363 0 
L 28 0 
z
" transform="scale(0.015625)"/>
      <path id="BlackOpsOne-Regular-6c" d="M 1100 0 
L 325 775 
L 325 4584 
L 1706 4584 
L 1706 828 
L 2325 828 
L 2325 0 
L 1100 0 
z
" transform="scale(0.015625)"/>
      <path id="BlackOpsOne-Regular-6e" d="M 2538 0 
L 2538 2491 
L 1944 2491 
L 1944 2853 
L 2406 3319 
L 3175 3319 
L 3922 2572 
L 3922 0 
L 2538 0 
z
M 325 0 
L 325 3319 
L 1719 3319 
L 1719 0 
L 325 0 
z
" transform="scale(0.015625)"/>
      <path id="BlackOpsOne-Regular-65" d="M 1125 0 
L 297 828 
L 297 2491 
L 1125 3319 
L 1678 3319 
L 1678 0 
L 1125 0 
z
M 1897 1331 
L 1897 1909 
L 2625 1909 
L 2625 2491 
L 1897 2491 
L 1897 3319 
L 3069 3319 
L 3897 2491 
L 3897 1331 
L 1897 1331 
z
M 1897 0 
L 1897 775 
L 3753 775 
L 3753 416 
L 3341 0 
L 1897 0 
z
" transform="scale(0.015625)"/>
      <path id="BlackOpsOne-Regular-57" d="M 1159 0 
L -81 4147 
L 1294 4147 
L 1903 1869 
L 2319 3609 
L 2859 1641 
L 2413 0 
L 1159 0 
z
M 3516 0 
L 2378 4147 
L 3772 4147 
L 4834 0 
L 3516 0 
z
M 4981 216 
L 4419 2425 
L 4847 4147 
L 6106 4147 
L 4981 216 
z
" transform="scale(0.015625)"/>
      <path id="BlackOpsOne-Regular-69" d="M 328 3731 
L 328 4613 
L 1713 4613 
L 1713 3731 
L 328 3731 
z
M 328 0 
L 328 3319 
L 1713 3319 
L 1713 0 
L 328 0 
z
" transform="scale(0.015625)"/>
      <path id="BlackOpsOne-Regular-74" d="M 1225 0 
L 394 828 
L 394 2491 
L 119 2491 
L 119 3319 
L 394 3319 
L 394 3678 
L 1775 4147 
L 1775 828 
L 2688 828 
L 2688 0 
L 1225 0 
z
M 1994 2491 
L 1994 3319 
L 2738 3319 
L 2738 2491 
L 1994 2491 
z
" transform="scale(0.015625)"/>
      <path id="BlackOpsOne-Regular-68" d="M 325 0 
L 325 4584 
L 1706 4584 
L 1706 0 
L 325 0 
z
M 2534 0 
L 2534 2491 
L 1925 2491 
L 1925 2909 
L 2331 3319 
L 3088 3319 
L 3919 2491 
L 3919 0 
L 2534 0 
z
" transform="scale(0.015625)"/>
      <path id="BlackOpsOne-Regular-75" d="M 1128 0 
L 297 828 
L 297 3319 
L 1678 3319 
L 1678 828 
L 2294 828 
L 2294 416 
L 1894 0 
L 1128 0 
z
M 2513 0 
L 2513 3319 
L 3894 3319 
L 3894 0 
L 2513 0 
z
" transform="scale(0.015625)"/>
     </defs>
     <use xlink:href="#BlackOpsOne-Regular-47"/>
     <use xlink:href="#BlackOpsOne-Regular-6f" x="72.998047"/>
     <use xlink:href="#BlackOpsOne-Regular-20" x="140.527344"/>
     <use xlink:href="#BlackOpsOne-Regular-48" x="166.40625"/>
     <use xlink:href="#BlackOpsOne-Regular-61" x="240.429688"/>
     <use xlink:href="#BlackOpsOne-Regular-72" x="305.419922"/>
     <use xlink:href="#BlackOpsOne-Regular-64" x="366.943359"/>
     <use xlink:href="#BlackOpsOne-Regular-2c" x="433.642578"/>
     <use xlink:href="#BlackOpsOne-Regular-20" x="469.580078"/>
     <use xlink:href="#BlackOpsOne-Regular-47" x="495.458984"/>
     <use xlink:href="#BlackOpsOne-Regular-6f" x="568.457031"/>
     <use xlink:href="#BlackOpsOne-Regular-20" x="635.986328"/>
     <use xlink:href="#BlackOpsOne-Regular-41" x="661.865234"/>
     <use xlink:href="#BlackOpsOne-Regular-6c" x="735.107422"/>
     <use xlink:href="#BlackOpsOne-Regular-6f" x="771.875"/>
     <use xlink:href="#BlackOpsOne-Regular-6e" x="839.404297"/>
     <use xlink:href="#BlackOpsOne-Regular-65" x="905.615234"/>
     <use xlink:href="#BlackOpsOne-Regular-2c" x="970.605469"/>
     <use xlink:href="#BlackOpsOne-Regular-20" x="1006.542969"/>
     <use xlink:href="#BlackOpsOne-Regular-47" x="1032.421875"/>
     <use xlink:href="#BlackOpsOne-Regular-6f" x="1105.419922"/>
     <use xlink:href="#BlackOpsOne-Regular-20" x="1172.949219"/>
     <use xlink:href="#BlackOpsOne-Regular-57" x="1198.828125"/>
     <use xlink:href="#BlackOpsOne-Regular-69" x="1292.96875"/>
     <use xlink:href="#BlackOpsOne-Regular-74" x="1324.853516"/>
     <use xlink:href="#BlackOpsOne-Regular-68" x="1370.3125"/>
     <use xlink:href="#BlackOpsOne-Regular-6f" x="1436.474609"/>
     <use xlink:href="#BlackOpsOne-Regular-75" x="1504.003906"/>
     <use xlink:href="#BlackOpsOne-Regular-74" x="1569.921875"/>
    </g>
   </g>
  </g>
 </g>
</svg>
