<?xml version="1.0" encoding="utf-8" standalone="no"?>
<!DOCTYPE svg PUBLIC "-//W3C//DTD SVG 1.1//EN"
  "http://www.w3.org/Graphics/SVG/1.1/DTD/svg11.dtd">
<svg xmlns:xlink="http://www.w3.org/1999/xlink" width="132.14625pt" height="27.64875pt" viewBox="0 0 132.14625 27.64875" xmlns="http://www.w3.org/2000/svg" version="1.1">
 <metadata>
  <rdf:RDF xmlns:dc="http://purl.org/dc/elements/1.1/" xmlns:cc="http://creativecommons.org/ns#" xmlns:rdf="http://www.w3.org/1999/02/22-rdf-syntax-ns#">
   <cc:Work>
    <dc:type rdf:resource="http://purl.org/dc/dcmitype/StillImage"/>
    <dc:date>2024-07-15T09:23:32.610588</dc:date>
    <dc:format>image/svg+xml</dc:format>
    <dc:creator>
     <cc:Agent>
      <dc:title>Matplotlib v3.8.2, https://matplotlib.org/</dc:title>
     </cc:Agent>
    </dc:creator>
   </cc:Work>
  </rdf:RDF>
 </metadata>
 <defs>
  <style type="text/css">*{stroke-linejoin: round; stroke-linecap: butt}</style>
 </defs>
 <g id="figure_1">
  <g id="patch_1">
   <path d="M 0 27.64875 
L 132.14625 27.64875 
L 132.14625 -0 
L 0 -0 
L 0 27.64875 
z
" style="fill: none"/>
  </g>
  <g id="axes_1">
   <g id="text_1">
    <!-- ServiceLater -->
    <g style="fill: #62d84e" transform="translate(0 19.68) scale(0.24 -0.24)">
     <defs>
      <path id="Knewave-Regular-53" d="M 1062 -371 
Q 736 -384 464 -291 
Q 192 -198 22 -38 
Q -147 122 -192 336 
Q -237 550 -115 774 
Q 51 1043 550 934 
Q 928 858 1072 851 
Q 1216 845 1318 890 
Q 1786 1043 1843 1222 
Q 1882 1357 1677 1536 
Q 1594 1613 1491 1689 
Q 1389 1766 1318 1843 
Q 998 2080 816 2390 
Q 634 2701 666 3065 
Q 698 3430 787 3670 
Q 877 3910 1011 4096 
Q 1248 4422 1626 4627 
Q 2061 4851 2323 4915 
Q 2842 5030 3373 4934 
Q 3552 4902 3680 4812 
Q 3808 4723 3936 4627 
Q 4160 4403 4045 4173 
Q 4000 4070 3904 4006 
Q 3808 3942 3699 3936 
Q 3712 3763 3635 3680 
Q 3488 3533 3123 3488 
Q 2598 3526 2413 3430 
Q 2195 3315 2253 2931 
Q 2266 2848 2358 2758 
Q 2451 2669 2576 2566 
Q 2701 2464 2838 2336 
Q 2976 2208 3078 2042 
Q 3437 1453 3021 666 
Q 2714 77 1971 -218 
Q 1587 -371 1062 -371 
z
" transform="scale(0.015625)"/>
      <path id="Knewave-Regular-65" d="M 2234 947 
Q 2112 890 1997 858 
Q 1882 826 1728 794 
Q 1325 710 1146 698 
Q 1165 634 1338 544 
Q 1453 525 1590 579 
Q 1728 634 1878 682 
Q 2029 730 2173 736 
Q 2317 742 2445 627 
Q 2496 512 2528 493 
Q 2560 474 2585 474 
Q 2611 474 2643 454 
Q 2675 435 2736 307 
Q 2797 179 2704 64 
Q 2611 -51 2419 -134 
Q 2227 -218 1971 -269 
Q 1715 -320 1459 -339 
Q 883 -384 582 -250 
Q 147 -102 19 333 
Q -147 909 205 1677 
Q 365 2035 710 2445 
Q 1011 2803 1382 2963 
Q 1811 3149 2278 3136 
Q 2778 3123 2970 2701 
Q 3066 2477 3008 2074 
Q 2906 1549 2739 1331 
Q 2573 1120 2234 947 
z
M 1862 1958 
Q 1523 2029 1331 1574 
Q 1274 1453 1242 1318 
Q 1459 1293 1702 1562 
Q 1792 1670 1837 1782 
Q 1882 1894 1862 1958 
z
" transform="scale(0.015625)"/>
      <path id="Knewave-Regular-72" d="M 666 2650 
Q 755 2880 918 2998 
Q 1082 3117 1232 3145 
Q 1382 3174 1481 3110 
Q 1581 3046 1549 2912 
Q 1670 3034 1900 3136 
Q 2131 3238 2265 3276 
Q 2400 3315 2496 3315 
Q 2707 3302 2618 3085 
Q 2726 3066 2777 2944 
Q 2829 2822 2790 2675 
Q 2752 2528 2617 2387 
Q 2483 2246 2256 2195 
Q 2029 2144 1878 1961 
Q 1728 1779 1613 1510 
Q 1421 1056 1267 224 
Q 1216 -77 851 -282 
Q 506 -480 218 -397 
Q -109 -307 -70 83 
Q -58 358 96 816 
Q 250 1274 333 1507 
Q 416 1741 448 1862 
L 666 2650 
z
" transform="scale(0.015625)"/>
      <path id="Knewave-Regular-76" d="M 1414 2842 
Q 1446 2458 1472 2070 
Q 1498 1683 1549 1299 
Q 1664 1536 1763 1798 
Q 1862 2061 1978 2317 
Q 2253 2918 2586 3200 
Q 2790 3424 3200 3424 
Q 3443 3424 3507 3270 
Q 3539 3194 3488 3066 
Q 3802 2842 3622 2547 
Q 3571 2470 3520 2406 
Q 3245 1946 3014 1555 
Q 2637 909 2336 448 
Q 2234 294 2051 105 
Q 1869 -83 1651 -218 
Q 1139 -550 838 -339 
Q 640 -314 467 -211 
Q 294 -109 205 58 
Q 70 410 269 1670 
Q 314 1952 326 2093 
Q 339 2234 358 2349 
Q 378 2464 390 2566 
Q 403 2669 416 2774 
Q 429 2880 474 2970 
Q 582 3174 870 3194 
L 947 3194 
Q 1062 3168 1165 3136 
Q 1338 3072 1395 2893 
Q 1402 2874 1414 2842 
z
" transform="scale(0.015625)"/>
      <path id="Knewave-Regular-69" d="M 845 2771 
Q 928 2982 1242 3059 
Q 1536 3136 1792 3040 
Q 2054 2938 2029 2707 
Q 1958 2483 1852 2160 
Q 1747 1837 1651 1498 
Q 1395 627 1357 269 
Q 1261 -307 1037 -352 
Q 973 -365 915 -371 
Q 774 -378 736 -448 
Q 698 -518 608 -553 
Q 518 -589 412 -585 
Q 307 -582 198 -534 
Q 90 -486 13 -397 
Q -166 -179 -58 186 
Q 45 883 461 1958 
Q 659 2490 845 2771 
z
M 2054 3731 
Q 1741 3667 1545 3769 
Q 1350 3872 1318 4016 
Q 1286 4160 1408 4314 
Q 1549 4506 1830 4563 
Q 1958 4576 2016 4576 
Q 2074 4576 2157 4550 
Q 2368 4531 2432 4365 
Q 2522 4224 2448 4045 
Q 2374 3866 2054 3731 
z
" transform="scale(0.015625)"/>
      <path id="Knewave-Regular-63" d="M 2624 3142 
Q 2874 3110 2960 2966 
Q 3046 2822 3027 2659 
Q 3008 2496 2909 2365 
Q 2810 2234 2688 2227 
Q 2643 2093 2547 2041 
Q 2451 1990 2336 1971 
Q 2221 1952 2096 1929 
Q 1971 1907 1862 1817 
Q 1754 1728 1680 1641 
Q 1606 1555 1562 1472 
Q 1485 1331 1427 1126 
Q 1414 986 1562 864 
Q 1734 730 1939 746 
Q 2144 762 2269 726 
Q 2394 691 2458 627 
Q 2598 480 2432 288 
Q 2112 -224 1357 -320 
Q 1133 -352 909 -336 
Q 685 -320 473 -166 
Q 262 -13 141 250 
Q -128 851 186 1651 
Q 486 2400 1088 2803 
Q 1747 3251 2624 3142 
z
" transform="scale(0.015625)"/>
      <path id="Knewave-Regular-4c" d="M 2221 -307 
Q 2086 -346 1964 -349 
Q 1843 -352 1718 -358 
Q 1594 -365 1376 -365 
Q 1158 -365 723 -352 
Q 621 -358 518 -358 
Q 416 -358 326 -320 
Q 128 -237 58 64 
Q 26 205 -16 262 
Q -58 320 -83 371 
Q -147 474 -73 710 
Q 0 947 115 1296 
Q 230 1645 378 2035 
Q 723 2963 998 3507 
Q 1107 3750 1187 3929 
Q 1267 4109 1331 4240 
Q 1395 4371 1395 4378 
Q 1459 4621 1888 4787 
Q 2304 4960 2643 4877 
Q 3021 4781 2976 4378 
Q 2886 3981 2710 3584 
Q 2534 3187 2310 2752 
Q 2086 2317 1824 1830 
Q 1562 1344 1306 774 
Q 1299 749 1331 730 
Q 1414 736 1564 781 
Q 1715 826 1878 861 
Q 2042 896 2202 896 
Q 2362 896 2470 813 
Q 2464 698 2528 630 
Q 2592 563 2656 499 
Q 2816 333 2682 58 
Q 2554 -211 2221 -307 
z
" transform="scale(0.015625)"/>
      <path id="Knewave-Regular-61" d="M 2931 2746 
L 2957 2739 
Q 2970 2739 2970 2733 
Q 3136 2797 3245 2637 
Q 3315 2528 3354 2304 
Q 3366 1997 3290 1453 
Q 3142 352 3130 141 
Q 3142 -83 2854 -166 
Q 2605 -243 2355 -160 
Q 2093 -70 2138 115 
Q 2086 19 2035 -22 
Q 1984 -64 1833 -137 
Q 1683 -211 1408 -259 
Q 1133 -307 857 -284 
Q 582 -262 355 -150 
Q 128 -38 51 198 
Q -96 659 90 1370 
Q 218 1837 550 2195 
Q 934 2605 1421 2874 
Q 1786 3072 2125 3110 
Q 2240 3123 2326 3104 
Q 2413 3085 2512 3065 
Q 2611 3046 2701 3008 
Q 2931 2912 2931 2746 
z
M 1747 1050 
Q 1792 1139 1821 1273 
Q 1850 1408 1901 1568 
Q 1382 1357 1107 1050 
Q 806 710 1146 582 
Q 1440 506 1574 678 
Q 1632 755 1677 870 
Q 1722 986 1786 1107 
Q 1766 1075 1747 1050 
z
" transform="scale(0.015625)"/>
      <path id="Knewave-Regular-74" d="M 1734 4787 
L 1741 4813 
L 1798 4870 
Q 1869 5037 1952 5069 
Q 1997 5082 2067 5101 
Q 2138 5120 2253 5197 
Q 2298 5286 2438 5276 
Q 2579 5267 2716 5187 
Q 2854 5107 2940 4966 
Q 3027 4826 2982 4675 
Q 2938 4525 2909 4451 
Q 2880 4378 2851 4314 
Q 2822 4250 2780 4170 
Q 2739 4090 2675 3955 
L 2464 3514 
Q 2432 3430 2409 3417 
Q 2387 3405 2368 3373 
Q 2426 3386 2464 3392 
Q 2502 3398 2541 3405 
Q 2630 3418 2746 3430 
Q 2816 3418 2867 3418 
L 2957 3418 
Q 3034 3418 3142 3376 
Q 3251 3334 3283 3232 
Q 3315 3130 3289 3024 
Q 3264 2918 3187 2828 
Q 3110 2739 2989 2733 
Q 2432 2579 2195 2566 
L 2157 2522 
L 2157 2515 
Q 2093 2362 2019 2128 
Q 1946 1894 1859 1622 
Q 1773 1350 1683 1059 
Q 1594 768 1498 499 
Q 1190 -403 1050 -480 
Q 998 -506 944 -515 
Q 890 -525 883 -531 
Q 659 -518 512 -441 
Q 365 -365 313 -294 
Q 262 -224 288 -134 
Q 410 979 774 2304 
Q 646 2304 595 2278 
Q 499 2227 365 2221 
L 358 2221 
Q 256 2227 173 2316 
Q 90 2406 70 2521 
Q 51 2637 108 2758 
Q 166 2880 339 2950 
Q 544 3008 640 3046 
Q 826 3123 950 3155 
Q 1075 3187 1091 3196 
Q 1107 3206 1114 3213 
Q 1133 3226 1210 3226 
Q 1248 3411 1286 3603 
Q 1325 3795 1382 3994 
Q 1510 4454 1734 4787 
z
" transform="scale(0.015625)"/>
     </defs>
     <use xlink:href="#Knewave-Regular-53"/>
     <use xlink:href="#Knewave-Regular-65" x="55.199997"/>
     <use xlink:href="#Knewave-Regular-72" x="103.399994"/>
     <use xlink:href="#Knewave-Regular-76" x="143.099991"/>
     <use xlink:href="#Knewave-Regular-69" x="193.999985"/>
     <use xlink:href="#Knewave-Regular-63" x="226.099976"/>
     <use xlink:href="#Knewave-Regular-65" x="270.59996"/>
     <use xlink:href="#Knewave-Regular-4c" x="318.799957"/>
     <use xlink:href="#Knewave-Regular-61" x="365.499954"/>
     <use xlink:href="#Knewave-Regular-74" x="419.099945"/>
     <use xlink:href="#Knewave-Regular-65" x="462.699936"/>
     <use xlink:href="#Knewave-Regular-72" x="510.899933"/>
    </g>
   </g>
  </g>
 </g>
</svg>
