<?xml version="1.0" encoding="utf-8" standalone="no"?>
<!DOCTYPE svg PUBLIC "-//W3C//DTD SVG 1.1//EN"
  "http://www.w3.org/Graphics/SVG/1.1/DTD/svg11.dtd">
<svg xmlns:xlink="http://www.w3.org/1999/xlink" width="243.0525pt" height="21.635122pt" viewBox="0 0 243.0525 21.635122" xmlns="http://www.w3.org/2000/svg" version="1.1">
 <metadata>
  <rdf:RDF xmlns:dc="http://purl.org/dc/elements/1.1/" xmlns:cc="http://creativecommons.org/ns#" xmlns:rdf="http://www.w3.org/1999/02/22-rdf-syntax-ns#">
   <cc:Work>
    <dc:type rdf:resource="http://purl.org/dc/dcmitype/StillImage"/>
    <dc:date>2024-07-15T17:37:07.577893</dc:date>
    <dc:format>image/svg+xml</dc:format>
    <dc:creator>
     <cc:Agent>
      <dc:title>Matplotlib v3.8.2, https://matplotlib.org/</dc:title>
     </cc:Agent>
    </dc:creator>
   </cc:Work>
  </rdf:RDF>
 </metadata>
 <defs>
  <style type="text/css">*{stroke-linejoin: round; stroke-linecap: butt}</style>
 </defs>
 <g id="figure_1">
  <g id="patch_1">
   <path d="M 0 21.635122 
L 243.0525 21.635122 
L 243.0525 0 
L 0 0 
L 0 21.635122 
z
" style="fill: none"/>
  </g>
  <g id="axes_1">
   <g id="text_1">
    <!-- service-later.com -->
    <g style="fill: #c50201" transform="translate(0 17.338811) scale(0.24 -0.24)">
     <defs>
      <path id="BlackOpsOne-Regular-73" d="M 2513 0 
L 2513 1253 
L 1019 1253 
L 300 1944 
L 300 2575 
L 1047 3319 
L 1600 3319 
L 1600 2147 
L 3175 2147 
L 3894 1422 
L 3894 775 
L 3122 0 
L 2513 0 
z
M 2513 2450 
L 2513 2709 
L 1819 2709 
L 1819 3319 
L 3288 3319 
L 3781 2825 
L 3781 2450 
L 2513 2450 
z
M 872 0 
L 297 684 
L 297 950 
L 1681 950 
L 1681 609 
L 2294 609 
L 2294 0 
L 872 0 
z
" transform="scale(0.015625)"/>
      <path id="BlackOpsOne-Regular-65" d="M 1125 0 
L 297 828 
L 297 2491 
L 1125 3319 
L 1678 3319 
L 1678 0 
L 1125 0 
z
M 1897 1331 
L 1897 1909 
L 2625 1909 
L 2625 2491 
L 1897 2491 
L 1897 3319 
L 3069 3319 
L 3897 2491 
L 3897 1331 
L 1897 1331 
z
M 1897 0 
L 1897 775 
L 3753 775 
L 3753 416 
L 3341 0 
L 1897 0 
z
" transform="scale(0.015625)"/>
      <path id="BlackOpsOne-Regular-72" d="M 325 0 
L 325 3319 
L 1706 3319 
L 1706 0 
L 325 0 
z
M 2516 1684 
L 2516 2491 
L 1928 2491 
L 1928 2853 
L 2391 3319 
L 3228 3319 
L 3900 2544 
L 3900 1684 
L 2516 1684 
z
" transform="scale(0.015625)"/>
      <path id="BlackOpsOne-Regular-76" d="M 1197 0 
L -44 3319 
L 1328 3319 
L 2509 0 
L 1197 0 
z
M 2650 184 
L 2031 1941 
L 2478 3319 
L 3769 3319 
L 2650 184 
z
" transform="scale(0.015625)"/>
      <path id="BlackOpsOne-Regular-69" d="M 328 3731 
L 328 4613 
L 1713 4613 
L 1713 3731 
L 328 3731 
z
M 328 0 
L 328 3319 
L 1713 3319 
L 1713 0 
L 328 0 
z
" transform="scale(0.015625)"/>
      <path id="BlackOpsOne-Regular-63" d="M 1125 0 
L 297 828 
L 297 2491 
L 1125 3319 
L 1678 3319 
L 1678 0 
L 1125 0 
z
M 2509 1994 
L 2509 2491 
L 1897 2491 
L 1897 3319 
L 3063 3319 
L 3891 2491 
L 3891 1994 
L 2509 1994 
z
M 1897 0 
L 1897 775 
L 2509 775 
L 2509 1191 
L 3891 1191 
L 3891 828 
L 3063 0 
L 1897 0 
z
" transform="scale(0.015625)"/>
      <path id="BlackOpsOne-Regular-2d" d="M 581 1566 
L 581 2313 
L 3341 2313 
L 3341 1566 
L 581 1566 
z
" transform="scale(0.015625)"/>
      <path id="BlackOpsOne-Regular-6c" d="M 1100 0 
L 325 775 
L 325 4584 
L 1706 4584 
L 1706 828 
L 2325 828 
L 2325 0 
L 1100 0 
z
" transform="scale(0.015625)"/>
      <path id="BlackOpsOne-Regular-61" d="M 2513 0 
L 2513 2491 
L 547 2491 
L 547 2903 
L 963 3319 
L 3034 3319 
L 3863 2491 
L 3863 0 
L 2513 0 
z
M 825 0 
L 269 547 
L 269 1378 
L 825 1931 
L 2294 1931 
L 2294 1356 
L 1581 1356 
L 1581 775 
L 2294 775 
L 2294 409 
L 1881 0 
L 825 0 
z
" transform="scale(0.015625)"/>
      <path id="BlackOpsOne-Regular-74" d="M 1225 0 
L 394 828 
L 394 2491 
L 119 2491 
L 119 3319 
L 394 3319 
L 394 3678 
L 1775 4147 
L 1775 828 
L 2688 828 
L 2688 0 
L 1225 0 
z
M 1994 2491 
L 1994 3319 
L 2738 3319 
L 2738 2491 
L 1994 2491 
z
" transform="scale(0.015625)"/>
      <path id="BlackOpsOne-Regular-2e" d="M 459 0 
L 459 966 
L 1841 966 
L 1841 0 
L 459 0 
z
" transform="scale(0.015625)"/>
      <path id="BlackOpsOne-Regular-6f" d="M 1125 0 
L 297 828 
L 297 2491 
L 1125 3319 
L 2053 3319 
L 2053 2491 
L 1694 2491 
L 1694 775 
L 2053 775 
L 2053 0 
L 1125 0 
z
M 2272 0 
L 2272 775 
L 2616 775 
L 2616 2491 
L 2272 2491 
L 2272 3319 
L 3197 3319 
L 4025 2491 
L 4025 828 
L 3197 0 
L 2272 0 
z
" transform="scale(0.015625)"/>
      <path id="BlackOpsOne-Regular-6d" d="M 2491 0 
L 2491 2491 
L 1928 2491 
L 1928 2881 
L 2363 3319 
L 3431 3319 
L 3875 2875 
L 3875 0 
L 2491 0 
z
M 325 0 
L 325 3319 
L 1709 3319 
L 1709 0 
L 325 0 
z
M 4656 0 
L 4656 2491 
L 4094 2491 
L 4094 2875 
L 4519 3319 
L 5363 3319 
L 6038 2638 
L 6038 0 
L 4656 0 
z
" transform="scale(0.015625)"/>
     </defs>
     <use xlink:href="#BlackOpsOne-Regular-73"/>
     <use xlink:href="#BlackOpsOne-Regular-65" x="64.208984"/>
     <use xlink:href="#BlackOpsOne-Regular-72" x="129.199219"/>
     <use xlink:href="#BlackOpsOne-Regular-76" x="190.722656"/>
     <use xlink:href="#BlackOpsOne-Regular-69" x="248.925781"/>
     <use xlink:href="#BlackOpsOne-Regular-63" x="280.810547"/>
     <use xlink:href="#BlackOpsOne-Regular-65" x="345.410156"/>
     <use xlink:href="#BlackOpsOne-Regular-2d" x="410.400391"/>
     <use xlink:href="#BlackOpsOne-Regular-6c" x="471.679688"/>
     <use xlink:href="#BlackOpsOne-Regular-61" x="508.447266"/>
     <use xlink:href="#BlackOpsOne-Regular-74" x="573.4375"/>
     <use xlink:href="#BlackOpsOne-Regular-65" x="618.896484"/>
     <use xlink:href="#BlackOpsOne-Regular-72" x="683.886719"/>
     <use xlink:href="#BlackOpsOne-Regular-2e" x="745.410156"/>
     <use xlink:href="#BlackOpsOne-Regular-63" x="781.347656"/>
     <use xlink:href="#BlackOpsOne-Regular-6f" x="845.947266"/>
     <use xlink:href="#BlackOpsOne-Regular-6d" x="913.476562"/>
    </g>
   </g>
  </g>
 </g>
</svg>
