<?xml version="1.0" encoding="utf-8" standalone="no"?>
<!DOCTYPE svg PUBLIC "-//W3C//DTD SVG 1.1//EN"
  "http://www.w3.org/Graphics/SVG/1.1/DTD/svg11.dtd">
<svg xmlns:xlink="http://www.w3.org/1999/xlink" width="286.095pt" height="24.585pt" viewBox="0 0 286.095 24.585" xmlns="http://www.w3.org/2000/svg" version="1.1">
 <metadata>
  <rdf:RDF xmlns:dc="http://purl.org/dc/elements/1.1/" xmlns:cc="http://creativecommons.org/ns#" xmlns:rdf="http://www.w3.org/1999/02/22-rdf-syntax-ns#">
   <cc:Work>
    <dc:type rdf:resource="http://purl.org/dc/dcmitype/StillImage"/>
    <dc:date>2024-07-15T17:27:14.250644</dc:date>
    <dc:format>image/svg+xml</dc:format>
    <dc:creator>
     <cc:Agent>
      <dc:title>Matplotlib v3.8.2, https://matplotlib.org/</dc:title>
     </cc:Agent>
    </dc:creator>
   </cc:Work>
  </rdf:RDF>
 </metadata>
 <defs>
  <style type="text/css">*{stroke-linejoin: round; stroke-linecap: butt}</style>
 </defs>
 <g id="figure_1">
  <g id="patch_1">
   <path d="M 0 24.585 
L 286.095 24.585 
L 286.095 -0 
L 0 -0 
L 0 24.585 
z
" style="fill: none"/>
  </g>
  <g id="axes_1">
   <g id="text_1">
    <!-- NowLearning EM (temp) -->
    <g style="fill: #62d84e" transform="translate(0 20.2725) scale(0.24 -0.24)">
     <defs>
      <path id="PermanentMarker-Regular-4e" d="M 1131 588 
Q 1069 538 1056 459 
Q 1044 381 1025 306 
Q 1006 231 959 178 
Q 913 125 794 131 
Q 769 100 784 94 
Q 800 88 813 38 
Q 725 50 687 25 
Q 650 0 594 -13 
Q 450 31 353 147 
Q 256 263 184 400 
Q 113 538 59 681 
Q 6 825 -50 931 
Q -50 956 -28 953 
Q -6 950 13 950 
Q -19 1013 -34 1091 
Q -50 1169 -94 1219 
Q 88 1606 294 2028 
Q 500 2450 709 2884 
Q 919 3319 1128 3759 
Q 1338 4200 1531 4625 
Q 1706 4563 1872 4478 
Q 2038 4394 2175 4281 
Q 2313 4169 2409 4022 
Q 2506 3875 2538 3688 
Q 2525 3650 2506 3662 
Q 2488 3675 2475 3650 
Q 2506 3613 2509 3597 
Q 2513 3581 2506 3565 
Q 2500 3550 2500 3525 
Q 2500 3500 2531 3456 
Q 2500 3463 2487 3447 
Q 2475 3431 2444 3444 
Q 2475 3356 2462 3306 
Q 2450 3256 2425 3215 
Q 2400 3175 2384 3128 
Q 2369 3081 2394 3000 
Q 2369 3000 2359 2990 
Q 2350 2981 2344 2968 
Q 2338 2956 2328 2947 
Q 2319 2938 2294 2944 
Q 2313 2781 2306 2615 
Q 2300 2450 2294 2278 
Q 2288 2106 2294 1925 
Q 2300 1744 2344 1550 
Q 2613 1706 2778 1956 
Q 2944 2206 3041 2512 
Q 3138 2819 3191 3169 
Q 3244 3519 3300 3881 
Q 3369 3950 3409 4050 
Q 3450 4150 3478 4256 
Q 3506 4363 3534 4472 
Q 3563 4581 3613 4669 
Q 3725 4656 3803 4603 
Q 3881 4550 3950 4484 
Q 4019 4419 4094 4362 
Q 4169 4306 4281 4288 
Q 4369 4163 4444 4047 
Q 4519 3931 4544 3788 
Q 4506 3725 4487 3650 
Q 4469 3575 4447 3500 
Q 4425 3425 4387 3362 
Q 4350 3300 4281 3256 
Q 4263 3069 4225 2906 
Q 4188 2744 4156 2587 
Q 4125 2431 4100 2262 
Q 4075 2094 4081 1894 
Q 4025 1713 3956 1522 
Q 3888 1331 3856 1169 
Q 3738 1075 3669 937 
Q 3600 800 3525 663 
Q 3494 638 3487 653 
Q 3481 669 3431 675 
Q 3438 619 3409 603 
Q 3381 588 3413 513 
Q 3306 463 3225 381 
Q 3144 300 3047 231 
Q 2950 163 2822 141 
Q 2694 119 2488 194 
Q 2181 419 1937 712 
Q 1694 1006 1550 1406 
Q 1488 1388 1456 1325 
Q 1425 1263 1400 1194 
Q 1375 1125 1350 1069 
Q 1325 1013 1275 1013 
Q 1263 956 1228 909 
Q 1194 863 1162 816 
Q 1131 769 1115 712 
Q 1100 656 1131 588 
z
" transform="scale(0.015625)"/>
      <path id="PermanentMarker-Regular-6f" d="M 3644 1875 
Q 3638 1800 3656 1731 
Q 3675 1663 3703 1597 
Q 3731 1531 3756 1462 
Q 3781 1394 3794 1325 
Q 3806 1238 3793 1134 
Q 3781 1031 3750 934 
Q 3719 838 3669 759 
Q 3619 681 3550 644 
Q 3463 531 3338 468 
Q 3213 406 3106 319 
Q 3038 275 2953 256 
Q 2869 238 2781 219 
Q 2713 181 2619 140 
Q 2525 100 2425 65 
Q 2325 31 2225 15 
Q 2125 0 2050 6 
Q 1863 -63 1684 -84 
Q 1506 -106 1269 -56 
Q 1044 -88 853 -37 
Q 663 13 516 122 
Q 369 231 259 384 
Q 150 538 81 706 
Q 31 1063 106 1353 
Q 181 1644 322 1891 
Q 463 2138 644 2347 
Q 825 2556 994 2756 
Q 1031 2744 1053 2759 
Q 1075 2775 1094 2803 
Q 1113 2831 1134 2856 
Q 1156 2881 1188 2888 
Q 1231 2981 1315 3028 
Q 1400 3075 1450 3163 
Q 1506 3175 1543 3200 
Q 1581 3225 1615 3256 
Q 1650 3288 1687 3316 
Q 1725 3344 1775 3356 
L 1775 3425 
Q 1888 3475 1941 3540 
Q 1994 3606 2069 3700 
Q 2125 3706 2159 3706 
Q 2194 3706 2263 3719 
Q 2313 3806 2353 3850 
Q 2394 3894 2475 3944 
Q 2550 3906 2640 3893 
Q 2731 3881 2800 3813 
Q 2806 3750 2837 3715 
Q 2869 3681 2906 3653 
Q 2944 3625 2978 3594 
Q 3013 3563 3025 3506 
Q 3050 3500 3059 3512 
Q 3069 3525 3094 3519 
Q 3113 3431 3138 3403 
Q 3163 3375 3188 3294 
Q 3156 3231 3140 3165 
Q 3125 3100 3063 3069 
Q 3056 3025 3087 3022 
Q 3119 3019 3125 2988 
Q 3131 2931 3106 2906 
Q 3256 2663 3375 2391 
Q 3494 2119 3644 1875 
z
M 2863 1281 
Q 2888 1350 2928 1394 
Q 2969 1438 2975 1525 
Q 2944 1575 2937 1603 
Q 2931 1631 2931 1694 
Q 2794 1888 2694 2109 
Q 2594 2331 2469 2525 
Q 2456 2500 2425 2475 
Q 2394 2450 2356 2488 
Q 2344 2438 2312 2416 
Q 2281 2394 2243 2397 
Q 2206 2400 2165 2415 
Q 2125 2431 2094 2456 
Q 1913 2313 1731 2175 
Q 1550 2038 1406 1856 
Q 1381 1844 1375 1847 
Q 1369 1850 1338 1838 
Q 1288 1719 1216 1622 
Q 1144 1525 1075 1425 
Q 1006 1325 956 1212 
Q 906 1100 900 950 
Q 1006 863 1150 844 
Q 1294 825 1447 837 
Q 1600 850 1747 878 
Q 1894 906 2019 906 
Q 2281 969 2468 1072 
Q 2656 1175 2863 1281 
z
" transform="scale(0.015625)"/>
      <path id="PermanentMarker-Regular-77" d="M 3519 -81 
Q 3300 19 3172 212 
Q 3044 406 2919 644 
Q 2900 681 2881 718 
Q 2863 756 2844 788 
L 2756 950 
L 2706 1050 
L 2631 981 
L 2519 881 
L 2456 819 
Q 2294 669 2128 522 
Q 1963 375 1778 259 
Q 1594 144 1391 72 
Q 1188 0 950 -6 
L 813 63 
Q 694 125 612 175 
Q 531 225 425 331 
Q 394 388 372 438 
Q 350 488 325 538 
Q 256 663 212 763 
Q 169 863 125 988 
Q 144 1075 181 1284 
Q 219 1494 272 1744 
Q 325 1994 384 2247 
Q 444 2500 506 2688 
Q 563 2850 634 3031 
Q 706 3213 790 3366 
Q 875 3519 975 3628 
Q 1075 3738 1188 3756 
Q 1219 3713 1256 3694 
Q 1294 3675 1325 3663 
Q 1413 3538 1497 3450 
Q 1581 3363 1694 3275 
Q 1663 3119 1603 2928 
Q 1544 2738 1478 2547 
Q 1413 2356 1350 2175 
Q 1288 1994 1250 1863 
Q 1213 1756 1188 1625 
Q 1131 1394 1081 994 
Q 1156 1013 1243 1075 
Q 1331 1138 1413 1206 
Q 1506 1281 1600 1375 
Q 1719 1494 1800 1594 
Q 1881 1694 1953 1800 
Q 2025 1906 2100 2034 
Q 2175 2163 2281 2338 
Q 2375 2488 2478 2659 
Q 2581 2831 2684 2990 
Q 2788 3150 2888 3281 
Q 2988 3413 3069 3488 
Q 3119 3425 3197 3369 
Q 3275 3313 3363 3281 
Q 3400 3225 3434 3178 
Q 3469 3131 3500 3094 
Q 3538 3038 3572 2988 
Q 3606 2938 3638 2888 
Q 3631 2844 3618 2775 
Q 3606 2706 3590 2625 
Q 3575 2544 3556 2459 
Q 3538 2375 3519 2300 
Q 3469 2063 3444 1944 
Q 3419 1825 3409 1756 
Q 3400 1688 3397 1641 
Q 3394 1594 3394 1513 
Q 3388 1450 3400 1388 
Q 3406 1331 3425 1268 
Q 3444 1206 3475 1156 
L 3725 1350 
Q 3831 1431 3928 1572 
Q 4025 1713 4115 1897 
Q 4206 2081 4293 2300 
Q 4381 2519 4469 2744 
Q 4600 3075 4734 3387 
Q 4869 3700 4994 3869 
Q 5131 3781 5234 3690 
Q 5338 3600 5413 3494 
Q 5488 3388 5534 3250 
Q 5581 3113 5600 2925 
Q 5488 2706 5384 2475 
Q 5281 2244 5188 2013 
Q 5063 1713 4928 1413 
Q 4794 1113 4631 841 
Q 4469 569 4269 341 
Q 4069 113 3806 -44 
Q 3738 -25 3688 -25 
Q 3588 -25 3519 -81 
z
" transform="scale(0.015625)"/>
      <path id="PermanentMarker-Regular-4c" d="M 356 231 
Q 331 256 312 290 
Q 294 325 281 381 
Q 194 488 144 625 
Q 94 763 75 909 
Q 56 1056 68 1206 
Q 81 1356 113 1488 
Q 131 1550 144 1619 
Q 175 1738 206 1853 
Q 238 1969 300 2044 
Q 275 2113 306 2194 
Q 338 2275 369 2344 
Q 381 2363 387 2378 
Q 394 2394 400 2406 
Q 475 2625 547 2828 
Q 619 3031 688 3219 
Q 813 3563 928 3894 
Q 1044 4225 1138 4600 
Q 1188 4638 1225 4650 
Q 1238 4656 1256 4662 
Q 1275 4669 1300 4669 
Q 1431 4600 1609 4540 
Q 1788 4481 1913 4481 
L 2019 4388 
Q 2100 4294 2159 4191 
Q 2219 4088 2194 3925 
Q 2156 3869 2131 3856 
Q 2094 3713 2050 3603 
Q 2006 3494 1963 3394 
Q 1913 3281 1869 3168 
Q 1825 3056 1794 2894 
Q 1756 2850 1747 2819 
Q 1738 2788 1725 2756 
Q 1713 2719 1694 2678 
Q 1675 2638 1638 2606 
Q 1613 2413 1563 2291 
Q 1513 2169 1463 2050 
Q 1375 1831 1300 1615 
Q 1225 1400 1213 1125 
Q 1288 1144 1350 1144 
Q 1431 1144 1506 1119 
Q 1731 1231 1997 1256 
Q 2263 1281 2525 1288 
Q 2744 1288 2931 1306 
Q 2994 1263 3012 1259 
Q 3031 1256 3075 1256 
Q 3094 1256 3112 1256 
Q 3131 1256 3163 1250 
Q 3250 1163 3331 1128 
Q 3413 1094 3506 1063 
Q 3588 1031 3666 997 
Q 3744 963 3819 906 
L 3875 588 
Q 3925 519 3919 494 
Q 3919 444 3894 406 
L 3906 325 
Q 3788 300 3750 272 
Q 3713 244 3669 200 
Q 3600 194 3538 194 
Q 3413 194 3281 156 
Q 3094 225 2869 225 
Q 2781 225 2690 219 
Q 2600 213 2513 200 
Q 2419 188 2325 178 
Q 2231 169 2138 169 
Q 2063 156 2031 150 
Q 2000 144 1969 131 
Q 1756 63 1509 -6 
Q 1263 -75 1013 -75 
Q 644 -75 419 113 
Q 394 169 381 187 
Q 369 206 356 231 
z
" transform="scale(0.015625)"/>
      <path id="PermanentMarker-Regular-65" d="M 3488 3519 
Q 3494 3475 3491 3453 
Q 3488 3431 3484 3412 
Q 3481 3394 3481 3372 
Q 3481 3350 3494 3306 
Q 3363 3094 3191 3016 
Q 3019 2938 2819 2903 
Q 2619 2869 2409 2831 
Q 2200 2794 1994 2669 
Q 1913 2700 1847 2669 
Q 1781 2638 1656 2650 
Q 1619 2613 1562 2597 
Q 1506 2581 1450 2563 
Q 1475 2506 1472 2447 
Q 1469 2388 1488 2350 
Q 1706 2331 1972 2356 
Q 2238 2381 2494 2388 
Q 2500 2356 2487 2347 
Q 2475 2338 2481 2313 
Q 2525 2281 2569 2234 
Q 2613 2188 2656 2144 
Q 2700 2100 2747 2072 
Q 2794 2044 2856 2050 
Q 2881 2000 2890 1940 
Q 2900 1881 2875 1819 
Q 2775 1750 2675 1678 
Q 2575 1606 2465 1550 
Q 2356 1494 2234 1459 
Q 2113 1425 1963 1431 
Q 1931 1431 1915 1431 
Q 1900 1431 1875 1450 
Q 1825 1419 1734 1431 
Q 1644 1444 1594 1413 
Q 1525 1444 1428 1441 
Q 1331 1438 1256 1463 
Q 1156 1331 1075 1181 
Q 994 1031 931 863 
Q 1144 831 1284 837 
Q 1425 844 1550 859 
Q 1675 875 1806 890 
Q 1938 906 2138 900 
Q 2263 969 2434 991 
Q 2606 1013 2750 1063 
Q 2800 1044 2837 997 
Q 2875 950 2909 909 
Q 2944 869 2981 837 
Q 3019 806 3075 813 
Q 3100 788 3109 753 
Q 3119 719 3125 687 
Q 3131 656 3147 634 
Q 3163 613 3200 619 
Q 3106 413 2984 303 
Q 2863 194 2706 137 
Q 2550 81 2359 50 
Q 2169 19 1938 -25 
Q 1881 -38 1843 -22 
Q 1806 -6 1756 -6 
Q 1613 -38 1413 -63 
Q 1213 -88 1006 -81 
Q 800 -75 612 -28 
Q 425 19 306 138 
Q 256 181 240 240 
Q 225 300 156 331 
Q 150 413 131 513 
Q 113 613 94 722 
Q 75 831 65 937 
Q 56 1044 75 1131 
Q 94 1225 153 1300 
Q 213 1375 194 1463 
Q 225 1469 231 1497 
Q 238 1525 281 1519 
Q 319 1631 362 1731 
Q 406 1831 453 1925 
Q 500 2019 547 2116 
Q 594 2213 638 2331 
Q 550 2413 509 2509 
Q 469 2606 450 2703 
Q 431 2800 418 2903 
Q 406 3006 375 3113 
Q 438 3206 528 3265 
Q 619 3325 725 3362 
Q 831 3400 956 3425 
Q 1081 3450 1219 3481 
Q 1469 3563 1666 3606 
Q 1863 3650 2053 3678 
Q 2244 3706 2450 3731 
Q 2656 3756 2919 3806 
Q 2975 3750 3025 3750 
Q 3050 3806 3084 3784 
Q 3119 3763 3113 3819 
Q 3175 3713 3272 3641 
Q 3369 3569 3488 3519 
z
" transform="scale(0.015625)"/>
      <path id="PermanentMarker-Regular-61" d="M 3306 525 
Q 3269 419 3197 309 
Q 3125 200 3028 115 
Q 2931 31 2812 -25 
Q 2694 -81 2563 -88 
Q 2481 -69 2453 -47 
Q 2425 -25 2394 -6 
Q 2375 6 2359 15 
Q 2344 25 2331 31 
L 2256 63 
L 2281 144 
Q 2294 194 2275 222 
Q 2256 250 2200 300 
Q 2181 319 2162 337 
Q 2144 356 2131 375 
L 2025 494 
L 2194 538 
Q 2350 581 2403 650 
Q 2456 719 2444 881 
Q 2319 906 2234 887 
Q 2150 869 2063 844 
Q 1950 813 1834 791 
Q 1719 769 1581 769 
Q 1531 769 1487 772 
Q 1444 775 1394 781 
L 1331 794 
Q 1319 863 1306 872 
Q 1294 881 1281 894 
Q 1250 925 1215 978 
Q 1181 1031 1200 1113 
Q 1169 1169 1163 1225 
Q 1125 1150 1106 1069 
L 1081 1006 
L 1019 994 
Q 1006 988 1000 966 
Q 994 944 994 931 
L 963 825 
Q 950 813 937 803 
Q 925 794 913 781 
Q 900 725 881 669 
Q 863 613 844 563 
Q 813 481 791 403 
Q 769 325 775 250 
L 750 181 
Q 719 144 681 122 
Q 644 100 606 81 
Q 594 69 572 59 
Q 550 50 538 44 
L 519 -25 
L 444 -38 
Q 375 -50 347 -56 
Q 319 -63 281 -63 
L 219 -56 
Q 150 0 112 34 
Q 75 69 25 100 
Q -31 175 -37 212 
Q -44 250 -50 281 
Q -63 319 -66 344 
Q -69 369 -81 381 
L -163 456 
L -94 513 
L -88 619 
Q 38 938 178 1231 
Q 319 1525 469 1831 
Q 519 1931 566 2031 
Q 613 2131 663 2231 
Q 656 2250 656 2275 
Q 656 2300 669 2331 
Q 738 2438 781 2522 
Q 825 2606 869 2694 
Q 919 2800 972 2900 
Q 1025 3000 1106 3106 
L 1206 3150 
Q 1225 3156 1250 3165 
Q 1275 3175 1306 3175 
L 1400 3163 
Q 1575 3244 1706 3391 
Q 1838 3538 1975 3744 
L 2038 3831 
L 2119 3781 
Q 2150 3763 2206 3747 
Q 2263 3731 2325 3713 
Q 2438 3688 2538 3656 
Q 2638 3625 2700 3563 
Q 2738 3463 2744 3413 
Q 2750 3363 2763 3313 
Q 2781 3206 2797 3100 
Q 2813 2994 2819 2863 
Q 2850 2756 2872 2653 
Q 2894 2550 2913 2444 
Q 2944 2294 2975 2153 
Q 3006 2013 3056 1888 
Q 3106 1888 3119 1881 
Q 3150 1894 3184 1900 
Q 3219 1906 3263 1913 
L 3331 1919 
L 3356 1856 
Q 3363 1825 3419 1794 
Q 3500 1788 3537 1759 
Q 3575 1731 3606 1700 
Q 3631 1675 3656 1663 
L 3750 1625 
L 3700 1531 
Q 3638 1419 3522 1316 
Q 3406 1213 3263 1144 
Q 3269 1106 3272 1072 
Q 3275 1038 3288 1000 
Q 3306 894 3318 781 
Q 3331 669 3319 550 
L 3306 525 
z
M 1500 1606 
Q 1688 1619 1841 1634 
Q 1994 1650 2181 1688 
Q 2138 1875 2088 2078 
Q 2038 2281 1981 2481 
L 1944 2419 
Q 1819 2288 1703 2125 
Q 1588 1963 1506 1819 
Q 1469 1763 1431 1706 
Q 1394 1650 1363 1594 
Q 1400 1600 1434 1600 
Q 1469 1600 1500 1606 
z
" transform="scale(0.015625)"/>
      <path id="PermanentMarker-Regular-72" d="M 1006 650 
Q 938 400 884 272 
Q 831 144 725 6 
Q 644 19 612 -12 
Q 581 -44 544 -69 
Q 488 -81 463 -68 
Q 438 -56 419 -40 
Q 400 -25 372 -9 
Q 344 6 288 6 
Q 275 56 259 100 
Q 244 144 175 131 
Q 188 181 181 215 
Q 175 250 165 278 
Q 156 306 150 334 
Q 144 363 156 406 
Q 125 406 106 450 
Q 88 494 63 538 
Q 81 650 100 750 
Q 119 850 147 937 
Q 175 1025 194 1112 
Q 213 1200 175 1294 
Q 200 1275 212 1303 
Q 225 1331 231 1378 
Q 238 1425 238 1472 
Q 238 1519 231 1550 
Q 294 1713 334 1884 
Q 375 2056 409 2225 
Q 444 2394 481 2556 
Q 519 2719 581 2856 
Q 650 2869 734 2841 
Q 819 2813 838 2769 
Q 1000 2894 1125 3072 
Q 1250 3250 1381 3419 
Q 1513 3588 1672 3719 
Q 1831 3850 2075 3875 
Q 2200 3781 2353 3684 
Q 2506 3588 2606 3431 
Q 2656 3406 2690 3378 
Q 2725 3350 2775 3319 
L 2775 3244 
Q 2850 3175 2897 3084 
Q 2944 2994 2981 2891 
Q 3019 2788 3056 2684 
Q 3094 2581 3144 2488 
Q 3131 2456 3131 2434 
Q 3131 2413 3140 2388 
Q 3150 2363 3156 2338 
Q 3163 2313 3156 2269 
Q 3138 1994 2978 1825 
Q 2819 1656 2594 1547 
Q 2369 1438 2112 1363 
Q 1856 1288 1650 1200 
Q 1650 1175 1672 1175 
Q 1694 1175 1688 1144 
Q 1838 1050 1925 994 
Q 2013 938 2091 900 
Q 2169 863 2259 834 
Q 2350 806 2513 769 
Q 2675 731 2765 709 
Q 2856 688 2931 672 
Q 3006 656 3084 647 
Q 3163 638 3306 625 
Q 3363 569 3403 491 
Q 3444 413 3456 334 
Q 3469 256 3462 184 
Q 3456 113 3419 69 
Q 3425 50 3447 53 
Q 3469 56 3494 50 
Q 3456 25 3431 -12 
Q 3406 -50 3381 -87 
Q 3356 -125 3325 -153 
Q 3294 -181 3238 -188 
Q 3044 -263 2750 -197 
Q 2456 -131 2006 44 
Q 1781 131 1640 197 
Q 1500 263 1397 328 
Q 1294 394 1209 469 
Q 1125 544 1006 650 
z
M 1900 2794 
Q 1831 2694 1747 2612 
Q 1663 2531 1584 2447 
Q 1506 2363 1443 2259 
Q 1381 2156 1356 2019 
Q 1575 2044 1812 2141 
Q 2050 2238 2263 2325 
Q 2238 2519 2128 2637 
Q 2019 2756 1900 2794 
z
" transform="scale(0.015625)"/>
      <path id="PermanentMarker-Regular-6e" d="M 1281 1138 
Q 1225 1125 1200 1072 
Q 1175 1019 1153 962 
Q 1131 906 1109 859 
Q 1088 813 1044 813 
Q 1038 763 1009 725 
Q 981 688 956 647 
Q 931 606 918 559 
Q 906 513 931 450 
Q 881 413 868 344 
Q 856 275 840 212 
Q 825 150 787 106 
Q 750 63 650 69 
Q 631 44 643 37 
Q 656 31 663 -6 
Q 594 6 559 -16 
Q 525 -38 475 -44 
Q 356 -6 278 87 
Q 200 181 140 297 
Q 81 413 34 531 
Q -13 650 -56 738 
Q -38 806 -50 872 
Q -63 938 -94 981 
Q 213 1631 575 2368 
Q 938 3106 1263 3825 
Q 1406 3769 1547 3697 
Q 1688 3625 1803 3531 
Q 1919 3438 2000 3316 
Q 2081 3194 2106 3044 
Q 2094 3006 2078 3015 
Q 2063 3025 2050 3006 
Q 2075 2975 2078 2962 
Q 2081 2950 2078 2937 
Q 2075 2925 2075 2903 
Q 2075 2881 2094 2844 
Q 2069 2850 2059 2837 
Q 2050 2825 2019 2838 
Q 2044 2769 2034 2725 
Q 2025 2681 2006 2647 
Q 1988 2613 1975 2572 
Q 1963 2531 1981 2469 
Q 1963 2469 1953 2459 
Q 1944 2450 1937 2440 
Q 1931 2431 1922 2422 
Q 1913 2413 1894 2419 
Q 1913 2281 1906 2143 
Q 1900 2006 1897 1865 
Q 1894 1725 1900 1572 
Q 1906 1419 1944 1256 
Q 2169 1388 2303 1594 
Q 2438 1800 2522 2056 
Q 2606 2313 2650 2606 
Q 2694 2900 2744 3206 
Q 2800 3263 2831 3344 
Q 2863 3425 2888 3515 
Q 2913 3606 2938 3697 
Q 2963 3788 3000 3863 
Q 3094 3850 3159 3803 
Q 3225 3756 3281 3703 
Q 3338 3650 3400 3603 
Q 3463 3556 3556 3544 
Q 3631 3438 3693 3338 
Q 3756 3238 3775 3125 
Q 3744 3075 3728 3012 
Q 3713 2950 3694 2887 
Q 3675 2825 3644 2772 
Q 3613 2719 3556 2681 
Q 3538 2519 3509 2384 
Q 3481 2250 3453 2119 
Q 3425 1988 3406 1847 
Q 3388 1706 3394 1538 
Q 3344 1394 3287 1231 
Q 3231 1069 3200 938 
Q 3100 856 3044 743 
Q 2988 631 2925 519 
Q 2900 494 2894 506 
Q 2888 519 2850 525 
Q 2856 500 2850 487 
Q 2844 475 2834 465 
Q 2825 456 2822 437 
Q 2819 419 2831 388 
Q 2744 350 2675 281 
Q 2606 213 2528 156 
Q 2450 100 2340 81 
Q 2231 63 2056 125 
Q 1800 313 1603 556 
Q 1406 800 1281 1138 
z
" transform="scale(0.015625)"/>
      <path id="PermanentMarker-Regular-69" d="M 1325 438 
Q 1356 250 1303 144 
Q 1250 38 1153 -15 
Q 1056 -69 931 -75 
Q 806 -81 694 -63 
Q 631 25 581 156 
Q 531 288 487 428 
Q 444 569 409 706 
Q 375 844 350 950 
Q 381 1025 390 1122 
Q 400 1219 403 1319 
Q 406 1419 409 1522 
Q 413 1625 425 1719 
Q 469 1981 553 2218 
Q 638 2456 688 2713 
Q 700 2769 678 2819 
Q 656 2869 669 2913 
Q 675 2938 706 2947 
Q 738 2956 744 2988 
Q 763 3056 753 3100 
Q 744 3144 775 3206 
Q 806 3256 853 3353 
Q 900 3450 888 3556 
Q 944 3594 994 3644 
Q 1044 3694 1097 3734 
Q 1150 3775 1215 3806 
Q 1281 3838 1375 3838 
Q 1425 3775 1440 3700 
Q 1456 3625 1472 3550 
Q 1488 3475 1519 3409 
Q 1550 3344 1625 3306 
Q 1625 3256 1625 3181 
Q 1625 3106 1631 3034 
Q 1638 2963 1659 2903 
Q 1681 2844 1731 2825 
Q 1619 2525 1522 2231 
Q 1425 1938 1362 1641 
Q 1300 1344 1284 1044 
Q 1269 744 1325 438 
z
" transform="scale(0.015625)"/>
      <path id="PermanentMarker-Regular-67" d="M 4431 1125 
Q 4281 856 4037 709 
Q 3794 563 3500 466 
Q 3206 369 2884 294 
Q 2563 219 2263 100 
Q 2175 100 2109 94 
Q 2044 88 1984 78 
Q 1925 69 1869 59 
Q 1813 50 1744 44 
Q 1719 50 1712 34 
Q 1706 19 1694 6 
Q 1588 -13 1503 -13 
Q 1419 -13 1363 -13 
Q 1288 -13 1209 -34 
Q 1131 -56 1069 -50 
Q 600 -25 334 284 
Q 69 594 38 1144 
Q 44 1175 28 1181 
Q 13 1188 0 1200 
Q 0 1263 15 1306 
Q 31 1350 19 1419 
Q 181 1763 387 2059 
Q 594 2356 881 2581 
Q 925 2619 956 2656 
Q 988 2694 1016 2731 
Q 1044 2769 1081 2797 
Q 1119 2825 1175 2838 
Q 1306 2988 1487 3113 
Q 1669 3238 1869 3353 
Q 2069 3469 2266 3584 
Q 2463 3700 2625 3844 
Q 2694 3813 2725 3825 
Q 2756 3838 2794 3825 
Q 2838 3731 2916 3693 
Q 2994 3656 3072 3615 
Q 3150 3575 3219 3519 
Q 3288 3463 3325 3369 
Q 3288 3369 3291 3341 
Q 3294 3313 3306 3284 
Q 3319 3256 3316 3228 
Q 3313 3200 3269 3200 
Q 3275 3169 3309 3166 
Q 3344 3163 3344 3131 
Q 3344 3100 3328 3081 
Q 3313 3063 3325 3019 
Q 3200 2938 3047 2863 
Q 2894 2788 2728 2703 
Q 2563 2619 2384 2522 
Q 2206 2425 2038 2300 
Q 1869 2175 1694 2022 
Q 1519 1869 1356 1700 
Q 1194 1531 1050 1353 
Q 906 1175 806 1000 
Q 819 969 834 953 
Q 850 938 863 906 
Q 1063 894 1234 909 
Q 1406 925 1581 888 
Q 1600 900 1606 925 
Q 1613 950 1638 963 
Q 1994 1000 2300 1078 
Q 2606 1156 2925 1244 
Q 2875 1263 2834 1278 
Q 2794 1294 2756 1306 
Q 2725 1338 2759 1359 
Q 2794 1381 2819 1406 
Q 2731 1456 2678 1531 
Q 2625 1606 2613 1731 
Q 2650 1763 2650 1806 
Q 2650 1850 2613 1875 
Q 2588 1881 2581 1875 
Q 2575 1869 2572 1856 
Q 2569 1844 2562 1834 
Q 2556 1825 2531 1838 
Q 2538 1894 2559 1931 
Q 2581 1969 2594 2019 
L 3025 2306 
Q 3094 2256 3194 2197 
Q 3294 2138 3403 2078 
Q 3513 2019 3628 1959 
Q 3744 1900 3844 1844 
Q 3931 1806 4000 1743 
Q 4069 1681 4131 1615 
Q 4194 1550 4259 1487 
Q 4325 1425 4413 1381 
Q 4400 1300 4419 1250 
Q 4438 1200 4431 1125 
z
" transform="scale(0.015625)"/>
      <path id="PermanentMarker-Regular-20" transform="scale(0.015625)"/>
      <path id="PermanentMarker-Regular-45" d="M 350 213 
Q 300 263 278 331 
Q 256 400 175 444 
Q 163 538 141 659 
Q 119 781 97 909 
Q 75 1038 65 1166 
Q 56 1294 75 1400 
Q 88 1456 116 1506 
Q 144 1556 172 1603 
Q 200 1650 215 1700 
Q 231 1750 219 1800 
Q 256 1806 265 1840 
Q 275 1875 325 1863 
Q 369 2000 419 2119 
Q 469 2238 525 2350 
Q 581 2463 640 2578 
Q 700 2694 750 2838 
Q 644 2938 597 3053 
Q 550 3169 525 3287 
Q 500 3406 487 3528 
Q 475 3650 438 3775 
Q 513 3888 619 3959 
Q 725 4031 853 4078 
Q 981 4125 1131 4153 
Q 1281 4181 1450 4219 
Q 1750 4313 1987 4366 
Q 2225 4419 2450 4453 
Q 2675 4488 2919 4516 
Q 3163 4544 3481 4600 
Q 3488 4581 3503 4581 
Q 3519 4581 3544 4581 
Q 3563 4538 3613 4538 
Q 3613 4556 3609 4572 
Q 3606 4588 3606 4600 
Q 3619 4600 3641 4594 
Q 3663 4588 3678 4581 
Q 3694 4575 3706 4584 
Q 3719 4594 3713 4625 
Q 3788 4494 3906 4409 
Q 4025 4325 4169 4263 
Q 4175 4206 4172 4181 
Q 4169 4156 4162 4134 
Q 4156 4113 4156 4084 
Q 4156 4056 4169 4006 
Q 4069 3838 3941 3744 
Q 3813 3650 3669 3600 
Q 3525 3550 3365 3525 
Q 3206 3500 3040 3472 
Q 2875 3444 2706 3394 
Q 2538 3344 2375 3244 
Q 2325 3263 2284 3259 
Q 2244 3256 2200 3243 
Q 2156 3231 2103 3218 
Q 2050 3206 1975 3219 
Q 1925 3175 1859 3156 
Q 1794 3138 1725 3119 
Q 1756 3050 1753 2981 
Q 1750 2913 1769 2863 
Q 2031 2838 2350 2866 
Q 2669 2894 2975 2906 
Q 2981 2875 2968 2862 
Q 2956 2850 2956 2819 
Q 3013 2781 3063 2725 
Q 3113 2669 3166 2616 
Q 3219 2563 3275 2528 
Q 3331 2494 3406 2500 
Q 3438 2438 3450 2369 
Q 3463 2300 3431 2225 
Q 3306 2144 3187 2059 
Q 3069 1975 2941 1906 
Q 2813 1838 2663 1794 
Q 2513 1750 2338 1756 
Q 2306 1756 2284 1756 
Q 2263 1756 2231 1781 
Q 2169 1750 2066 1759 
Q 1963 1769 1894 1738 
Q 1806 1769 1690 1769 
Q 1575 1769 1488 1800 
Q 1375 1638 1275 1459 
Q 1175 1281 1100 1081 
Q 1356 1044 1525 1050 
Q 1694 1056 1844 1075 
Q 1994 1094 2153 1112 
Q 2313 1131 2544 1125 
Q 2700 1200 2903 1228 
Q 3106 1256 3281 1313 
Q 3344 1294 3387 1241 
Q 3431 1188 3472 1134 
Q 3513 1081 3556 1043 
Q 3600 1006 3669 1019 
Q 3700 988 3709 944 
Q 3719 900 3728 862 
Q 3738 825 3756 803 
Q 3775 781 3825 788 
Q 3706 544 3559 412 
Q 3413 281 3228 209 
Q 3044 138 2816 103 
Q 2588 69 2306 19 
Q 2238 6 2191 22 
Q 2144 38 2094 38 
Q 1919 6 1678 -25 
Q 1438 -56 1194 -50 
Q 950 -44 725 12 
Q 500 69 350 213 
z
" transform="scale(0.015625)"/>
      <path id="PermanentMarker-Regular-4d" d="M 563 -88 
Q 500 -88 369 -69 
Q 269 38 191 222 
Q 113 406 72 615 
Q 31 825 34 1034 
Q 38 1244 106 1406 
Q 106 1413 165 1556 
Q 225 1700 319 1922 
Q 413 2144 531 2416 
Q 650 2688 769 2950 
Q 888 3213 997 3428 
Q 1106 3644 1188 3763 
Q 1244 3850 1291 3931 
Q 1338 4013 1381 4081 
Q 1450 4194 1509 4291 
Q 1569 4388 1641 4466 
Q 1713 4544 1800 4603 
Q 1888 4663 2013 4706 
Q 2088 4675 2144 4640 
Q 2200 4606 2244 4556 
L 2263 4469 
Q 2275 4425 2303 4409 
Q 2331 4394 2350 4394 
Q 2431 4375 2490 4353 
Q 2550 4331 2619 4325 
Q 2644 4288 2666 4250 
Q 2688 4213 2713 4181 
Q 2838 4000 2919 3831 
Q 3000 3663 2919 3463 
L 2925 3394 
Q 2956 3350 2956 3312 
Q 2956 3275 2944 3206 
Q 2938 3156 2934 3097 
Q 2931 3038 2950 2969 
L 2994 2919 
Q 3094 2869 3188 2869 
Q 3313 2869 3413 2925 
Q 3513 2981 3600 3038 
Q 3669 3088 3728 3119 
Q 3788 3150 3844 3163 
Q 3975 3288 4084 3384 
Q 4194 3481 4313 3581 
Q 4538 3763 4750 3972 
Q 4963 4181 5088 4494 
Q 5156 4538 5244 4538 
Q 5331 4538 5418 4503 
Q 5506 4469 5594 4425 
Q 5613 4413 5628 4406 
Q 5644 4400 5663 4388 
Q 5663 4319 5719 4263 
Q 5750 4238 5762 4231 
Q 5775 4225 5788 4219 
Q 5838 4188 5872 4163 
Q 5906 4138 5925 4094 
Q 5981 3925 6113 3831 
Q 6100 3763 6119 3697 
Q 6138 3631 6163 3569 
Q 6175 3544 6181 3522 
Q 6188 3500 6200 3469 
L 6063 3481 
L 6081 3344 
Q 6100 3238 6065 3106 
Q 6031 2975 5988 2900 
Q 6000 2713 6000 2603 
Q 6000 2494 5987 2400 
Q 5975 2306 5947 2222 
Q 5919 2138 5875 2044 
Q 5900 1569 5765 1175 
Q 5631 781 5475 438 
Q 5456 394 5437 356 
Q 5419 319 5406 281 
Q 5338 263 5281 238 
Q 5225 213 5175 181 
Q 5106 138 5037 109 
Q 4969 81 4894 81 
Q 4594 300 4584 837 
Q 4575 1375 4813 2206 
Q 4856 2238 4850 2300 
L 4850 2369 
L 4788 2375 
Q 4756 2375 4731 2369 
Q 4706 2363 4694 2313 
Q 4494 2169 4259 2016 
Q 4025 1863 3775 1734 
Q 3525 1606 3265 1522 
Q 3006 1438 2763 1438 
Q 2138 1438 1819 2075 
L 1763 2188 
L 1700 2088 
Q 1681 2056 1634 1965 
Q 1588 1875 1541 1756 
Q 1494 1638 1459 1513 
Q 1425 1388 1438 1294 
Q 1363 1225 1291 1137 
Q 1219 1050 1188 938 
Q 1175 906 1181 878 
Q 1188 850 1200 819 
Q 1194 775 1175 756 
Q 1156 738 1131 719 
Q 1100 688 1069 653 
Q 1038 619 1013 575 
Q 1000 538 994 497 
Q 988 456 981 425 
Q 981 356 963 331 
Q 900 200 853 115 
Q 806 31 762 -12 
Q 719 -56 672 -72 
Q 625 -88 563 -88 
z
" transform="scale(0.015625)"/>
      <path id="PermanentMarker-Regular-28" d="M 1725 2963 
L 1500 2681 
L 1494 2506 
Q 1419 2350 1359 2175 
Q 1300 2000 1250 1781 
Q 1194 1544 1187 1284 
Q 1181 1025 1209 769 
Q 1238 513 1294 269 
Q 1350 25 1425 -175 
Q 1406 -200 1390 -272 
Q 1375 -344 1365 -425 
Q 1356 -506 1353 -578 
Q 1350 -650 1363 -681 
L 1406 -750 
Q 1431 -763 1437 -794 
Q 1444 -825 1450 -850 
Q 1463 -1006 1369 -1150 
Q 1244 -1131 1134 -1090 
Q 1025 -1050 931 -1006 
Q 863 -856 784 -762 
Q 706 -669 631 -581 
Q 563 -506 497 -425 
Q 431 -344 363 -219 
Q 338 -13 300 156 
Q 263 325 213 506 
L 194 575 
Q 206 806 218 1047 
Q 231 1288 219 1463 
Q 231 1513 234 1572 
Q 238 1631 244 1694 
Q 244 1719 244 1769 
Q 244 1819 250 1844 
L 388 1856 
L 344 2056 
L 413 2131 
L 438 2244 
Q 456 2600 537 2865 
Q 619 3131 769 3388 
L 819 3481 
Q 925 3625 1031 3787 
Q 1138 3950 1275 4138 
Q 1494 4375 1659 4544 
Q 1825 4713 1994 4819 
L 2050 4888 
Q 2169 5000 2253 5072 
Q 2338 5144 2406 5213 
Q 2475 5275 2531 5325 
Q 2588 5375 2644 5406 
Q 2731 5344 2812 5356 
Q 2894 5369 2944 5388 
Q 3019 5306 3019 5250 
Q 3019 5194 2994 5094 
Q 2975 5013 2959 4906 
Q 2944 4800 2994 4675 
Q 2963 4606 2941 4534 
Q 2919 4463 2894 4388 
Q 2869 4313 2850 4278 
Q 2831 4244 2809 4222 
Q 2788 4200 2759 4178 
Q 2731 4156 2694 4106 
Q 2550 4050 2403 3928 
Q 2256 3806 2128 3659 
Q 2000 3513 1903 3356 
Q 1806 3200 1763 3069 
L 1725 2963 
z
" transform="scale(0.015625)"/>
      <path id="PermanentMarker-Regular-74" d="M 3556 3006 
Q 3400 3006 3219 2984 
Q 3038 2963 2863 2938 
Q 2738 2919 2622 2906 
Q 2506 2894 2413 2888 
Q 2369 2750 2325 2644 
Q 2281 2538 2231 2438 
Q 2181 2331 2140 2222 
Q 2100 2113 2063 1988 
Q 2000 1888 1959 1803 
Q 1919 1719 1894 1613 
Q 1819 1519 1781 1416 
Q 1744 1313 1725 1238 
L 1700 1163 
Q 1663 1125 1656 1103 
Q 1650 1081 1625 1063 
Q 1619 994 1581 925 
Q 1569 894 1562 866 
Q 1556 838 1556 825 
Q 1556 763 1525 744 
Q 1531 713 1525 678 
Q 1519 644 1513 613 
Q 1494 538 1500 494 
Q 1519 469 1534 450 
Q 1550 431 1556 400 
Q 1594 375 1613 369 
Q 1638 350 1688 325 
L 1744 263 
Q 1775 81 1688 -25 
Q 1594 -144 1369 -144 
L 1294 -144 
Q 1263 -113 1256 -94 
Q 1206 -75 1175 -62 
Q 1144 -50 1119 -13 
Q 1038 25 988 50 
L 931 81 
Q 931 150 931 156 
Q 888 213 866 281 
Q 844 350 831 419 
Q 819 475 803 525 
Q 788 575 763 613 
Q 750 975 831 1225 
Q 913 1475 1000 1706 
Q 1050 1831 1100 1959 
Q 1150 2088 1188 2225 
L 1244 2288 
Q 1288 2388 1316 2453 
Q 1344 2519 1375 2588 
Q 1394 2631 1409 2672 
Q 1425 2713 1438 2744 
Q 1400 2744 1369 2741 
Q 1338 2738 1306 2731 
Q 1269 2725 1237 2722 
Q 1206 2719 1175 2719 
Q 1131 2719 1113 2725 
Q 1044 2694 963 2694 
L 900 2694 
Q 881 2694 865 2697 
Q 850 2700 838 2700 
Q 775 2700 738 2681 
Q 663 2681 594 2681 
L 531 2681 
Q 519 2681 500 2678 
Q 481 2675 469 2675 
Q 425 2675 375 2684 
Q 325 2694 269 2725 
Q 194 2825 169 2831 
L 113 2906 
Q 106 2944 93 2978 
Q 81 3013 69 3056 
Q 44 3119 22 3191 
Q 0 3263 0 3363 
Q 6 3413 25 3438 
Q 44 3463 56 3481 
L 75 3575 
L 156 3569 
L 331 3569 
Q 531 3569 737 3584 
Q 944 3600 1163 3619 
Q 1288 3631 1416 3643 
Q 1544 3656 1681 3669 
Q 1706 3725 1731 3775 
L 1794 3806 
Q 1906 3813 1953 3778 
Q 2000 3744 2031 3713 
Q 2169 3725 2309 3740 
Q 2450 3756 2594 3781 
Q 2806 3813 3022 3838 
Q 3238 3863 3438 3863 
Q 3525 3863 3606 3856 
Q 3688 3850 3756 3838 
L 3819 3794 
Q 3838 3756 3872 3725 
Q 3906 3694 3944 3663 
Q 4019 3594 4094 3500 
Q 4169 3406 4150 3225 
Q 4100 3150 4075 3138 
L 4019 3063 
L 3956 3069 
Q 3919 3069 3887 3059 
Q 3856 3050 3825 3038 
Q 3800 3025 3775 3015 
Q 3750 3006 3719 3000 
Q 3663 3000 3628 3003 
Q 3594 3006 3556 3006 
z
" transform="scale(0.015625)"/>
      <path id="PermanentMarker-Regular-6d" d="M 4325 113 
Q 4263 81 4209 56 
Q 4156 31 4088 31 
Q 3844 213 3834 663 
Q 3825 1113 4025 1806 
Q 4056 1825 4056 1881 
L 4000 1944 
Q 3975 1944 3953 1937 
Q 3931 1931 3919 1894 
Q 3756 1775 3562 1647 
Q 3369 1519 3159 1409 
Q 2950 1300 2734 1231 
Q 2519 1163 2313 1163 
Q 1788 1163 1525 1694 
L 1475 1788 
L 1425 1706 
Q 1406 1681 1368 1603 
Q 1331 1525 1293 1425 
Q 1256 1325 1228 1222 
Q 1200 1119 1206 1044 
Q 1150 988 1087 913 
Q 1025 838 994 744 
Q 981 694 1006 650 
Q 994 594 950 563 
Q 925 531 897 503 
Q 869 475 850 444 
Q 838 413 834 381 
Q 831 350 825 319 
Q 825 275 813 238 
Q 706 19 643 -47 
Q 581 -113 475 -113 
Q 425 -113 313 -94 
Q 231 -6 165 147 
Q 100 300 65 475 
Q 31 650 34 828 
Q 38 1006 94 1138 
Q 94 1144 144 1262 
Q 194 1381 272 1568 
Q 350 1756 450 1984 
Q 550 2213 650 2428 
Q 750 2644 840 2825 
Q 931 3006 994 3100 
Q 1044 3175 1084 3240 
Q 1125 3306 1163 3369 
Q 1275 3563 1378 3691 
Q 1481 3819 1681 3894 
Q 1819 3838 1881 3763 
L 1894 3694 
Q 1919 3631 1969 3631 
Q 2038 3613 2084 3597 
Q 2131 3581 2188 3569 
Q 2231 3519 2269 3450 
Q 2319 3375 2366 3303 
Q 2413 3231 2441 3159 
Q 2469 3088 2472 3013 
Q 2475 2938 2444 2856 
L 2450 2794 
Q 2481 2738 2463 2638 
Q 2456 2594 2456 2547 
Q 2456 2500 2469 2444 
Q 2581 2356 2669 2356 
Q 2769 2356 2853 2403 
Q 2938 2450 3013 2500 
Q 3063 2538 3113 2566 
Q 3163 2594 3213 2600 
Q 3325 2706 3415 2787 
Q 3506 2869 3606 2950 
Q 3794 3100 3969 3275 
Q 4144 3450 4250 3713 
Q 4313 3750 4381 3750 
Q 4450 3750 4525 3719 
Q 4600 3688 4669 3656 
Q 4688 3644 4703 3637 
Q 4719 3631 4731 3625 
Q 4731 3563 4781 3519 
Q 4806 3500 4812 3494 
Q 4819 3488 4831 3481 
Q 4925 3431 4950 3381 
Q 4994 3238 5106 3163 
Q 5094 3100 5109 3047 
Q 5125 2994 5150 2938 
Q 5156 2919 5162 2900 
Q 5169 2881 5181 2856 
L 5063 2869 
L 5081 2750 
Q 5094 2663 5066 2556 
Q 5038 2450 5000 2388 
Q 5006 2225 5009 2134 
Q 5013 2044 5000 1966 
Q 4988 1888 4966 1819 
Q 4944 1750 4906 1669 
Q 4931 1269 4815 941 
Q 4700 613 4575 325 
Q 4563 294 4547 262 
Q 4531 231 4519 200 
Q 4463 181 4419 159 
Q 4375 138 4325 113 
z
" transform="scale(0.015625)"/>
      <path id="PermanentMarker-Regular-70" d="M 2356 3875 
Q 2619 3844 2825 3769 
Q 3031 3694 3175 3569 
Q 3275 3413 3365 3231 
Q 3456 3050 3503 2853 
Q 3550 2656 3547 2450 
Q 3544 2244 3456 2031 
Q 3275 1806 3015 1665 
Q 2756 1525 2456 1437 
Q 2156 1350 1834 1287 
Q 1513 1225 1206 1163 
Q 1213 1019 1209 859 
Q 1206 700 1178 540 
Q 1150 381 1094 231 
Q 1038 81 944 -44 
Q 838 -44 725 -72 
Q 613 -100 525 -119 
Q 481 -94 447 -72 
Q 413 -50 350 -44 
Q 363 19 319 84 
Q 275 150 231 219 
Q 188 288 172 350 
Q 156 413 231 469 
Q 188 513 188 581 
Q 231 656 265 787 
Q 300 919 322 1047 
Q 344 1175 331 1281 
Q 319 1388 206 1438 
Q 213 1450 231 1450 
Q 250 1450 269 1456 
Q 219 1494 209 1562 
Q 200 1631 163 1681 
Q 175 1713 181 1738 
Q 188 1763 225 1756 
Q 206 1869 228 1969 
Q 250 2069 294 2159 
Q 338 2250 400 2337 
Q 463 2425 519 2513 
Q 563 2519 572 2500 
Q 581 2481 613 2506 
Q 694 2569 725 2637 
Q 756 2706 756 2794 
Q 800 2925 862 3059 
Q 925 3194 1000 3306 
Q 1075 3419 1165 3506 
Q 1256 3594 1356 3638 
Q 1431 3700 1543 3753 
Q 1656 3806 1787 3834 
Q 1919 3863 2053 3866 
Q 2188 3869 2300 3838 
Q 2331 3825 2334 3850 
Q 2338 3875 2356 3875 
z
M 2100 2381 
Q 2256 2450 2434 2490 
Q 2613 2531 2731 2644 
Q 2656 2713 2512 2766 
Q 2369 2819 2200 2831 
Q 2031 2844 1859 2803 
Q 1688 2763 1563 2650 
Q 1525 2538 1500 2472 
Q 1475 2406 1431 2313 
Q 1444 2281 1472 2265 
Q 1500 2250 1513 2219 
Q 1656 2294 1803 2303 
Q 1950 2313 2100 2381 
z
" transform="scale(0.015625)"/>
      <path id="PermanentMarker-Regular-29" d="M 2056 3681 
Q 2044 3444 2031 3206 
Q 2019 2969 2031 2794 
Q 2019 2738 2016 2678 
Q 2013 2619 2006 2563 
Q 2006 2538 2006 2488 
Q 2006 2438 2000 2413 
L 1863 2394 
L 1906 2200 
L 1838 2125 
L 1813 2013 
Q 1794 1656 1712 1390 
Q 1631 1125 1481 863 
L 1431 775 
Q 1325 631 1219 465 
Q 1113 300 975 113 
Q 756 -125 590 -290 
Q 425 -456 256 -563 
L 200 -631 
Q 81 -744 -3 -816 
Q -88 -888 -156 -956 
Q -225 -1019 -281 -1069 
Q -338 -1119 -394 -1150 
Q -481 -1088 -562 -1103 
Q -644 -1119 -694 -1131 
Q -769 -1056 -769 -997 
Q -769 -938 -744 -844 
Q -725 -756 -709 -650 
Q -694 -544 -744 -419 
Q -713 -350 -691 -281 
Q -669 -213 -644 -131 
Q -619 -56 -600 -21 
Q -581 13 -559 34 
Q -538 56 -509 78 
Q -481 100 -444 150 
Q -306 206 -156 328 
Q -6 450 122 597 
Q 250 744 347 897 
Q 444 1050 488 1181 
L 525 1294 
L 744 1575 
L 756 1750 
Q 900 2044 1000 2475 
Q 1056 2706 1059 2965 
Q 1063 3225 1034 3484 
Q 1006 3744 950 3987 
Q 894 4231 825 4431 
Q 844 4456 859 4528 
Q 875 4600 884 4681 
Q 894 4763 897 4834 
Q 900 4906 888 4938 
L 844 5000 
Q 819 5019 812 5047 
Q 806 5075 800 5106 
Q 788 5263 881 5406 
Q 1000 5388 1109 5347 
Q 1219 5306 1319 5263 
Q 1388 5113 1466 5019 
Q 1544 4925 1619 4838 
Q 1688 4756 1753 4678 
Q 1819 4600 1888 4475 
Q 1913 4269 1950 4100 
Q 1988 3931 2038 3750 
L 2056 3681 
z
" transform="scale(0.015625)"/>
     </defs>
     <use xlink:href="#PermanentMarker-Regular-4e"/>
     <use xlink:href="#PermanentMarker-Regular-6f" x="68.457031"/>
     <use xlink:href="#PermanentMarker-Regular-77" x="131.347656"/>
     <use xlink:href="#PermanentMarker-Regular-4c" x="213.867188"/>
     <use xlink:href="#PermanentMarker-Regular-65" x="277.148438"/>
     <use xlink:href="#PermanentMarker-Regular-61" x="329.296875"/>
     <use xlink:href="#PermanentMarker-Regular-72" x="387.402344"/>
     <use xlink:href="#PermanentMarker-Regular-6e" x="441.503906"/>
     <use xlink:href="#PermanentMarker-Regular-69" x="497.949219"/>
     <use xlink:href="#PermanentMarker-Regular-6e" x="529.980469"/>
     <use xlink:href="#PermanentMarker-Regular-67" x="586.425781"/>
     <use xlink:href="#PermanentMarker-Regular-20" x="651.660156"/>
     <use xlink:href="#PermanentMarker-Regular-45" x="688.671875"/>
     <use xlink:href="#PermanentMarker-Regular-4d" x="751.367188"/>
     <use xlink:href="#PermanentMarker-Regular-20" x="848.730469"/>
     <use xlink:href="#PermanentMarker-Regular-28" x="885.742188"/>
     <use xlink:href="#PermanentMarker-Regular-74" x="921.875"/>
     <use xlink:href="#PermanentMarker-Regular-65" x="969.824219"/>
     <use xlink:href="#PermanentMarker-Regular-6d" x="1021.972656"/>
     <use xlink:href="#PermanentMarker-Regular-70" x="1103.417969"/>
     <use xlink:href="#PermanentMarker-Regular-29" x="1155.859375"/>
    </g>
   </g>
  </g>
 </g>
</svg>
